<?xml version="1.0" encoding="utf-8"?>
<!-- Generator: Adobe Illustrator 22.1.0, SVG Export Plug-In . SVG Version: 6.00 Build 0)  -->
<svg version="1.1" id="Layer_1" xmlns="http://www.w3.org/2000/svg" xmlns:xlink="http://www.w3.org/1999/xlink" x="0px" y="0px"
	 viewBox="0 0 982 972" style="enable-background:new 0 0 982 972;" xml:space="preserve">
<style type="text/css">
	.st0{fill:#707580;}
</style>
<g>
	<g>
		<path class="st0" d="M46.8,512.8c0-3.1,1.1-5.7,3.3-7.9c2.2-2.2,4.9-3.3,8-3.3c3.2,0,5.9,1.1,8.1,3.3c2.2,2.2,3.3,4.8,3.3,8
			c0,3.2-1.1,5.9-3.3,8.1c-2.2,2.2-4.8,3.3-8,3.3c-3.2,0-5.9-1.1-8.1-3.3C47.9,518.7,46.8,516,46.8,512.8z M66.9,544.3v75.7H49.4
			v-75.7H66.9z"/>
		<path class="st0" d="M89,544.3h17.6v7c6.1-6.1,13-9.1,20.7-9.1c8.8,0,15.7,2.8,20.6,8.3c4.2,4.7,6.4,12.4,6.4,23.1v46.4h-17.6
			v-42.3c0-7.5-1-12.6-3.1-15.5c-2-2.9-5.7-4.4-11-4.4c-5.8,0-9.9,1.9-12.4,5.7c-2.4,3.8-3.6,10.4-3.6,19.8v36.5H89V544.3z"/>
		<path class="st0" d="M232.1,488.7h17.6v131.2h-17.6V612c-6.9,6.7-14.7,10.1-23.4,10.1c-10.4,0-19-3.8-25.8-11.3
			c-6.8-7.7-10.2-17.4-10.2-28.9c0-11.3,3.4-20.7,10.2-28.3c6.7-7.6,15.2-11.4,25.4-11.4c8.9,0,16.8,3.6,23.8,10.9V488.7z
			 M190.6,581.9c0,7.3,1.9,13.2,5.8,17.7c4,4.6,9,6.9,15.1,6.9c6.5,0,11.7-2.2,15.7-6.7c4-4.6,6-10.5,6-17.6c0-7.1-2-12.9-6-17.6
			c-4-4.5-9.2-6.8-15.5-6.8c-6,0-11,2.3-15.1,6.8C192.6,569.4,190.6,575.1,190.6,581.9z"/>
		<path class="st0" d="M269.1,512.8c0-3.1,1.1-5.7,3.3-7.9c2.2-2.2,4.9-3.3,8-3.3c3.2,0,5.9,1.1,8.1,3.3c2.2,2.2,3.3,4.8,3.3,8
			c0,3.2-1.1,5.9-3.3,8.1c-2.2,2.2-4.8,3.3-8,3.3s-5.9-1.1-8.1-3.3C270.2,518.7,269.1,516,269.1,512.8z M289.2,544.3v75.7h-17.5
			v-75.7H289.2z"/>
		<path class="st0" d="M380.2,586.2H326c0.5,6.2,2.5,11.2,6.1,14.8c3.6,3.6,8.2,5.4,13.8,5.4c4.4,0,7.9-1,10.8-3.1
			c2.8-2.1,6-5.9,9.6-11.5l14.8,8.2c-2.3,3.9-4.7,7.2-7.2,10c-2.5,2.8-5.3,5-8.2,6.8c-2.9,1.8-6,3.1-9.4,3.9c-3.4,0.8-7,1.2-11,1.2
			c-11.3,0-20.4-3.6-27.2-10.9c-6.8-7.3-10.3-17-10.3-29.1c0-12,3.3-21.6,9.9-29.1c6.7-7.3,15.5-11,26.6-11
			c11.1,0,19.9,3.5,26.4,10.6c6.4,7,9.6,16.8,9.6,29.3L380.2,586.2z M362.3,571.9c-2.4-9.3-8.3-14-17.6-14c-2.1,0-4.1,0.3-6,1
			c-1.9,0.6-3.6,1.6-5.1,2.8c-1.5,1.2-2.8,2.7-3.9,4.4s-1.9,3.7-2.5,5.8H362.3z"/>
		<path class="st0" d="M144.5,665.6H162v131.2h-17.6v-7.9c-6.9,6.7-14.7,10.1-23.4,10.1c-10.4,0-19-3.8-25.8-11.3
			c-6.8-7.7-10.2-17.4-10.2-28.9c0-11.3,3.4-20.7,10.2-28.3c6.7-7.6,15.2-11.4,25.4-11.4c8.9,0,16.8,3.6,23.8,10.9V665.6z
			 M103,758.8c0,7.3,1.9,13.2,5.8,17.7c4,4.6,9,6.9,15.1,6.9c6.5,0,11.7-2.2,15.7-6.7c4-4.6,6-10.5,6-17.6s-2-12.9-6-17.6
			c-4-4.5-9.2-6.8-15.5-6.8c-6,0-11,2.3-15.1,6.8C105,746.3,103,752,103,758.8z"/>
		<path class="st0" d="M253,763.1h-54.2c0.5,6.2,2.5,11.2,6.1,14.8c3.6,3.6,8.2,5.4,13.8,5.4c4.4,0,7.9-1,10.8-3.1
			c2.8-2.1,6-5.9,9.6-11.5l14.8,8.2c-2.3,3.9-4.7,7.2-7.2,10c-2.5,2.8-5.3,5-8.2,6.8c-2.9,1.8-6,3.1-9.4,3.9c-3.4,0.8-7,1.2-11,1.2
			c-11.3,0-20.4-3.6-27.2-10.9c-6.8-7.3-10.3-17-10.3-29.1c0-12,3.3-21.6,9.9-29.1c6.7-7.3,15.5-11,26.6-11
			c11.1,0,19.9,3.5,26.4,10.6c6.4,7,9.6,16.8,9.6,29.3L253,763.1z M235.1,748.8c-2.4-9.3-8.3-14-17.6-14c-2.1,0-4.1,0.3-6,1
			c-1.9,0.6-3.6,1.6-5.1,2.8c-1.5,1.2-2.8,2.7-3.9,4.4c-1.1,1.7-1.9,3.7-2.5,5.8H235.1z"/>
		<path class="st0" d="M278.8,721.2l19.6,42.5l19.5-42.5h19.7L298.2,802l-39-80.9H278.8z"/>
		<path class="st0" d="M415.5,763.1h-54.2c0.5,6.2,2.5,11.2,6.1,14.8c3.6,3.6,8.2,5.4,13.8,5.4c4.4,0,7.9-1,10.8-3.1
			c2.8-2.1,6-5.9,9.6-11.5l14.8,8.2c-2.3,3.9-4.7,7.2-7.2,10c-2.5,2.8-5.3,5-8.2,6.8c-2.9,1.8-6,3.1-9.4,3.9c-3.4,0.8-7,1.2-11,1.2
			c-11.3,0-20.4-3.6-27.2-10.9c-6.8-7.3-10.3-17-10.3-29.1c0-12,3.3-21.6,9.9-29.1c6.7-7.3,15.5-11,26.6-11
			c11.1,0,19.9,3.5,26.4,10.6c6.4,7,9.6,16.8,9.6,29.3L415.5,763.1z M397.6,748.8c-2.4-9.3-8.3-14-17.6-14c-2.1,0-4.1,0.3-6,1
			c-1.9,0.6-3.6,1.6-5.1,2.8c-1.5,1.2-2.8,2.7-3.9,4.4c-1.1,1.7-1.9,3.7-2.5,5.8H397.6z"/>
		<path class="st0" d="M452.1,665.6v131.2h-17.5V665.6H452.1z"/>
		<path class="st0" d="M470.7,758.4c0-10.9,3.9-20.2,11.7-27.9c7.8-7.7,17.3-11.5,28.6-11.5c11.3,0,20.9,3.9,28.7,11.6
			c7.8,7.7,11.7,17.2,11.7,28.4c0,11.3-3.9,20.8-11.7,28.5c-7.9,7.6-17.5,11.4-29,11.4c-11.3,0-20.8-3.9-28.5-11.7
			C474.5,779.7,470.7,770.1,470.7,758.4z M488.6,758.8c0,7.6,2,13.5,6.1,17.9c4.1,4.5,9.6,6.7,16.4,6.7c6.8,0,12.3-2.2,16.4-6.6
			c4.1-4.4,6.1-10.3,6.1-17.6s-2-13.2-6.1-17.6c-4.1-4.5-9.6-6.7-16.4-6.7c-6.7,0-12.1,2.2-16.2,6.7
			C490.7,746,488.6,751.7,488.6,758.8z"/>
		<path class="st0" d="M587.4,838h-17.5V721.2h17.5v8.2c6.9-6.9,14.7-10.3,23.5-10.3c10.4,0,19,3.8,25.7,11.5
			c6.8,7.6,10.3,17.2,10.3,28.8c0,11.3-3.4,20.8-10.2,28.4c-6.7,7.5-15.2,11.3-25.5,11.3c-8.9,0-16.8-3.5-23.8-10.6V838z M629,759.5
			c0-7.3-2-13.2-5.9-17.7c-4-4.6-9-6.9-15.1-6.9c-6.4,0-11.6,2.2-15.6,6.7c-4,4.5-6,10.3-6,17.6c0,7.1,2,12.9,6,17.6
			c3.9,4.5,9.1,6.8,15.5,6.8c6.1,0,11.1-2.3,15-6.8C627,772,629,766.3,629,759.5z"/>
		<path class="st0" d="M734.2,763.1H680c0.5,6.2,2.5,11.2,6.1,14.8c3.6,3.6,8.2,5.4,13.8,5.4c4.4,0,7.9-1,10.8-3.1
			c2.8-2.1,6-5.9,9.6-11.5L735,777c-2.3,3.9-4.7,7.2-7.2,10c-2.5,2.8-5.3,5-8.2,6.8c-2.9,1.8-6,3.1-9.4,3.9c-3.4,0.8-7,1.2-11,1.2
			c-11.3,0-20.4-3.6-27.2-10.9c-6.8-7.3-10.3-17-10.3-29.1c0-12,3.3-21.6,9.9-29.1c6.7-7.3,15.5-11,26.6-11
			c11.1,0,19.9,3.5,26.4,10.6c6.4,7,9.6,16.8,9.6,29.3L734.2,763.1z M716.3,748.8c-2.4-9.3-8.3-14-17.6-14c-2.1,0-4.1,0.3-6,1
			c-1.9,0.6-3.6,1.6-5.1,2.8c-1.5,1.2-2.8,2.7-3.9,4.4s-1.9,3.7-2.5,5.8H716.3z"/>
		<path class="st0" d="M753.4,721.2h17.5v6.8c3.2-3.4,6.1-5.7,8.5-6.9c2.5-1.3,5.5-1.9,9-1.9c4.6,0,9.4,1.5,14.4,4.5l-8,16
			c-3.3-2.4-6.6-3.6-9.7-3.6c-9.5,0-14.3,7.2-14.3,21.6v39.2h-17.5V721.2z"/>
	</g>
	<g>
		<g>
			<polygon class="st0" points="554.8,368.1 440.3,253.3 554.7,141.2 			"/>
		</g>
		<g>
			<polygon class="st0" points="552.3,382.3 431.2,499.9 310.6,382.3 431.9,261.5 			"/>
		</g>
		<g>
			<polygon class="st0" points="556,622.9 439.6,508.1 555,396.1 			"/>
		</g>
		<g>
			<polygon class="st0" points="932.3,252.5 820,367.7 823.2,143 			"/>
		</g>
		<g>
			<polygon class="st0" points="803.2,134.9 688.2,248.3 574.8,134.9 			"/>
		</g>
		<g>
			<polygon class="st0" points="679.8,256.6 566.6,368.3 566.5,143.2 			"/>
		</g>
		<g>
			<polygon class="st0" points="803.2,629.8 567.6,629.8 566.5,396.3 			"/>
		</g>
		<g>
			<polygon class="st0" points="811.5,621.5 696.5,508.1 808.2,396.3 			"/>
		</g>
		<g>
			<polygon class="st0" points="811.5,143.2 808.2,368.4 696.5,256.6 802.3,152.2 			"/>
		</g>
		<g>
			<polygon class="st0" points="932.3,509.5 823.2,621.5 820,396.8 			"/>
		</g>
		<g>
			<polygon class="st0" points="934.7,266.9 934.7,495.3 822.2,382.3 			"/>
		</g>
	</g>
</g>
</svg>
