<?xml version="1.0" encoding="utf-8"?>
<!-- Generator: Adobe Illustrator 22.1.0, SVG Export Plug-In . SVG Version: 6.00 Build 0)  -->
<svg version="1.1" id="Layer_1" xmlns="http://www.w3.org/2000/svg" xmlns:xlink="http://www.w3.org/1999/xlink" x="0px" y="0px"
	 viewBox="0 0 890.5 700" style="enable-background:new 0 0 890.5 700;" xml:space="preserve">
<style type="text/css">
	.st0{fill:#0D1122;}
	.st1{fill:#6A0A26;}
	.st2{fill:#E11A53;}
</style>
<title>logo</title>
<path class="st0" d="M89.2,422.4l-11.3,8.5c-0.1-0.5-0.1-0.9-0.1-1.4c0.1-4.4,3.6-7.9,8-7.9C86.9,421.6,88.1,421.8,89.2,422.4z"/>
<path class="st0" d="M208,482.4c-0.5,3-1.8,5.8-3.8,8c-2.8,3.1-6.8,4.8-11,4.7c-0.7,0-1.5,0-2.2-0.2l-11.3,8.3
	c3.5,1.9,7.5,2.8,11.5,2.8c6.1,0,11.6-2.4,16.4-7.1v5.6h12.3v-30.9C215.9,476.7,211.9,479.6,208,482.4z"/>
<path class="st0" d="M235.4,462.4v7.9c4-5,8.1-10,12.3-15.1v-1.8C243.5,456.5,239.5,459.5,235.4,462.4z"/>
<path class="st0" d="M326.4,609c-2.5,3.9-4.8,6.6-6.7,8.1c-2.2,1.5-4.9,2.3-7.6,2.2c-3.6,0.1-7.1-1.3-9.7-3.8
	c-0.3-0.3-0.6-0.7-0.9-1.1c-3.1,2.8-6.1,5.5-9,8.1l0.1,0.1c4.8,5.1,11.2,7.6,19.1,7.6c2.6,0,5.2-0.3,7.7-0.9
	c2.3-0.6,4.6-1.5,6.6-2.8c2.1-1.3,4-2.9,5.7-4.8c1.9-2.2,3.6-4.5,5-7L326.4,609z M336.3,602.1c0-6.4-1.2-11.8-3.7-16.2
	c-3.1,2.9-6.2,5.7-9.2,8.5c0.1,0.2,0.1,0.4,0.2,0.6h-0.8c-3.8,3.5-7.5,6.8-11,10h24.4L336.3,602.1z"/>
<path class="st0" d="M349.7,570.1v58.5H362v-69.9C357.7,562.6,353.7,566.4,349.7,570.1z"/>
<path class="st0" d="M419,601.3c0,0.3,0,0.6,0,0.9c0,5.2-1.4,9.3-4.3,12.4s-6.7,4.6-11.5,4.6c-4.3,0.2-8.5-1.5-11.5-4.7
	c-2.8-3.1-4.2-7.3-4.2-12.6c-0.2-4.4,1.4-8.8,4.4-12.1c2.9-3.1,7.1-4.8,11.4-4.7c2.9-0.1,5.8,0.7,8.4,2.1c-1.5-4.1-2.6-8.4-3.1-12.8
	c-1.7-0.3-3.5-0.4-5.2-0.4c-7.5-0.1-14.7,2.8-20,8.1c-5.4,5.1-8.3,12.2-8.2,19.6c0,8.1,2.7,14.9,8.1,20.3c5.2,5.4,12.5,8.3,20,8.2
	c7.6,0.2,14.9-2.7,20.3-8c2.8-2.6,4.9-5.9,6.3-9.4C425.7,609.4,422.1,605.6,419,601.3z"/>
<path class="st0" d="M460.4,625.8c3.8,2.8,8.3,4.3,13,4.3c6.8,0.2,13.4-2.7,17.9-7.9c0.5-0.5,0.9-1,1.3-1.5
	C482.6,625.4,471.4,627.1,460.4,625.8z M444.5,657.5h12.3v-32.2c-4.2-0.7-8.3-2-12.3-3.6V657.5z"/>
<path class="st0" d="M549.9,609c-2.5,3.9-4.7,6.6-6.7,8.1c-2.2,1.5-4.9,2.3-7.6,2.2c-3.6,0.1-7.1-1.3-9.6-3.8
	c-2.6-2.8-4.1-6.5-4.2-10.4h38l0.1-2.9c0-8.7-2.3-15.6-6.8-20.5c-4-4.4-9.6-7-15.5-7.3c-4.3,5.4-8.1,10.2-11.3,14.2
	c0.2-0.2,0.5-0.4,0.8-0.6c1.1-0.9,2.3-1.5,3.6-2c1.4-0.5,2.8-0.7,4.2-0.7c6.5,0,10.7,3.3,12.4,9.8h-24.6c0.3-1.3,0.8-2.5,1.5-3.6
	c-6.3,8-9.9,12.4-10.1,12.6c-1.4,1.7-2.9,3.4-4.5,5c0.8,5.1,3.1,9.8,6.6,13.6c4.8,5.1,11.2,7.6,19.1,7.6c2.6,0,5.2-0.3,7.7-0.9
	c2.3-0.6,4.6-1.5,6.6-2.8c2.1-1.3,4-2.9,5.7-4.8c1.9-2.2,3.6-4.5,5.1-7L549.9,609z"/>
<path class="st0" d="M573.1,575.6h12.3v4.7c1.7-1.9,3.7-3.6,6-4.8c2-1,4.1-1.4,6.3-1.4c3.6,0.1,7.1,1.2,10.2,3.2l-5.6,11.2
	c-1.9-1.5-4.3-2.4-6.8-2.5c-6.7,0-10,5-10,15.2v27.5h-12.3v-53.1L573.1,575.6L573.1,575.6z"/>
<path class="st0" d="M433.9,197.9c-6.6,1.8-13.2,4.1-19.5,6.9c-11.9,5.2-23.6,11-34.9,17.5l54.4-53.4V197.9z"/>
<path class="st0" d="M434.8,506.7l-8.6-8.5c2.8-2.7,5.7-5.4,8.6-8.1V506.7z"/>
<path class="st0" d="M608.1,164.5L527.4,244l-2.9-2.9l-6.3-6.3c-4.1-10.1-10.7-18.9-19.2-25.7c-4.9-3.9-10.2-7.1-16-9.5l-35-35
	L608.1,164.5z"/>
<path class="st0" d="M467,195.3c-8.3-1-16.7-0.8-24.9,0.7v-25.7L467,195.3z"/>
<path class="st0" d="M475.8,451.1l27.5-26.1c-20.9,27-41.3,53-60.4,77.1l-0.1-19.7C453.3,472.4,464.4,462,475.8,451.1z"/>
<path class="st0" d="M608.1,511.5h-21.4l9.3-12L608.1,511.5z"/>
<path class="st0" d="M613.9,505.7L601.1,493c4.1-5.2,8.2-10.6,12.4-16.1L613.9,505.7z"/>
<path class="st0" d="M698.6,427.2l-76.5,78.5l-0.6-39.2c14.9-19.4,30.5-39.9,46.3-60.8c1.3-1.8,2.7-3.5,4-5.3L698.6,427.2z"/>
<path class="st0" d="M700.3,362.3v54.8l-23.4-23.5C685,383,692.8,372.5,700.3,362.3z"/>
<rect x="79.6" y="451.5" class="st1" width="12.3" height="53.1"/>
<path class="st2" d="M209.7,595c-0.6-2.3-1.4-4.1-2.6-5.6c-0.2-0.3-0.4-0.5-0.7-0.8c-0.2-0.2-0.5-0.5-0.7-0.7
	c-1.1-1-2.4-1.7-3.9-2.2c-1.3-0.4-2.8-0.6-4.4-0.6c-0.2,0-0.4,0-0.5,0c-1.2,0-2.5,0.2-3.7,0.7c-1.3,0.5-2.5,1.1-3.6,2
	c-0.1,0.1-0.3,0.2-0.4,0.3l0,0c-0.1,0.1-0.2,0.2-0.4,0.3l0,0c-0.2,0.2-0.5,0.5-0.7,0.7s-0.5,0.5-0.7,0.8s-0.4,0.6-0.6,0.9
	c-0.8,1.3-1.4,2.5-1.7,4v0.1L209.7,595C209.7,595.1,209.7,595,209.7,595z M298.9,470.9C298.9,471,299,471,298.9,470.9L298.9,470.9z
	 M298.4,469.2L298.4,469.2L298.4,469.2c0-0.1,0-0.1,0-0.1c0-0.1-0.1-0.2-0.1-0.3c-0.1-0.2-0.2-0.5-0.3-0.7l0,0
	c-0.1-0.1-0.1-0.3-0.2-0.4s-0.1-0.2-0.2-0.3l0,0c-0.1-0.2-0.2-0.3-0.3-0.5c-0.1-0.1-0.2-0.3-0.3-0.4c0,0,0-0.1-0.1-0.1
	c-0.1-0.1-0.1-0.2-0.2-0.3c-0.1-0.1-0.1-0.1-0.1-0.2c0,0,0-0.1-0.1-0.1l-0.1-0.2c-0.2-0.2-0.3-0.4-0.5-0.6c-0.2-0.3-0.5-0.5-0.7-0.7
	c-0.1-0.1-0.2-0.2-0.4-0.3l0,0c-0.1-0.1-0.3-0.2-0.4-0.3c-0.8-0.6-1.6-1.1-2.6-1.5c-1.4-0.5-3-0.9-4.7-1c-0.2,0-0.5,0-0.7,0
	c-0.5,0-1,0-1.6,0.1c-0.3,0.1-0.7,0.1-1,0.2c-0.5,0.1-1,0.2-1.5,0.4c-0.3,0.1-0.5,0.2-0.8,0.3c-0.1,0-0.2,0.1-0.3,0.1
	c-0.2,0.1-0.4,0.2-0.6,0.3c-0.7,0.3-1.4,0.8-2,1.3c0,0,0,0-0.1,0c-0.1,0.1-0.2,0.2-0.3,0.3c-0.1,0.1-0.1,0.1-0.2,0.2l-0.1,0.1
	l-0.1,0.1c-0.1,0.1-0.3,0.2-0.4,0.4c-0.3,0.3-0.6,0.7-0.9,1.1c-0.1,0.1-0.2,0.2-0.2,0.3c-0.1,0.2-0.3,0.4-0.4,0.6s-0.2,0.3-0.3,0.5
	c-0.2,0.2-0.3,0.5-0.4,0.7c-0.5,0.8-0.8,1.7-1,2.7c0,0.1,0,0.1,0,0.2h0.1l12.2-0.1h4.1l8.1-0.1h0.1c-0.1-0.4-0.2-0.8-0.3-1.2
	C298.5,469.6,298.5,469.4,298.4,469.2z M209.7,595c-0.6-2.3-1.4-4.1-2.6-5.6c-0.2-0.3-0.4-0.5-0.7-0.8c-0.2-0.2-0.5-0.5-0.7-0.7
	c-1.1-1-2.4-1.7-3.9-2.2c-1.3-0.4-2.8-0.6-4.4-0.6c-0.2,0-0.4,0-0.5,0c-1.2,0-2.5,0.2-3.7,0.7c-1.3,0.5-2.5,1.1-3.6,2
	c-0.1,0.1-0.3,0.2-0.4,0.3l0,0c-0.1,0.1-0.2,0.2-0.4,0.3l0,0c-0.2,0.2-0.5,0.5-0.7,0.7s-0.5,0.5-0.7,0.8s-0.4,0.6-0.6,0.9
	c-0.8,1.3-1.4,2.5-1.7,4v0.1L209.7,595C209.7,595.1,209.7,595,209.7,595z M298.9,470.9C298.9,471,299,471,298.9,470.9L298.9,470.9z
	 M298.4,469.2L298.4,469.2L298.4,469.2c0-0.1,0-0.1,0-0.1c0-0.1-0.1-0.2-0.1-0.3c-0.1-0.2-0.2-0.5-0.3-0.7l0,0
	c-0.1-0.1-0.1-0.3-0.2-0.4s-0.1-0.2-0.2-0.3l0,0c-0.1-0.2-0.2-0.3-0.3-0.5c-0.1-0.1-0.2-0.3-0.3-0.4c0,0,0-0.1-0.1-0.1
	c-0.1-0.1-0.1-0.2-0.2-0.3c-0.1-0.1-0.1-0.1-0.1-0.2c0,0,0-0.1-0.1-0.1l-0.1-0.2c-0.2-0.2-0.3-0.4-0.5-0.6c-0.2-0.3-0.5-0.5-0.7-0.7
	c-0.1-0.1-0.2-0.2-0.4-0.3l0,0c-0.1-0.1-0.3-0.2-0.4-0.3c-0.8-0.6-1.6-1.1-2.6-1.5c-1.4-0.5-3-0.9-4.7-1c-0.2,0-0.5,0-0.7,0
	c-0.5,0-1,0-1.6,0.1c-0.3,0.1-0.7,0.1-1,0.2c-0.5,0.1-1,0.2-1.5,0.4c-0.3,0.1-0.5,0.2-0.8,0.3c-0.1,0-0.2,0.1-0.3,0.1
	c-0.2,0.1-0.4,0.2-0.6,0.3c-0.7,0.3-1.4,0.8-2,1.3c0,0,0,0-0.1,0c-0.1,0.1-0.2,0.2-0.3,0.3c-0.1,0.1-0.1,0.1-0.2,0.2l-0.1,0.1
	l-0.1,0.1c-0.1,0.1-0.3,0.2-0.4,0.4c-0.3,0.3-0.6,0.7-0.9,1.1c-0.1,0.1-0.2,0.2-0.2,0.3c-0.1,0.2-0.3,0.4-0.4,0.6s-0.2,0.3-0.3,0.5
	c-0.2,0.2-0.3,0.5-0.4,0.7c-0.5,0.8-0.8,1.7-1,2.7c0,0.1,0,0.1,0,0.2h0.1l12.2-0.1h4.1l8.1-0.1h0.1c-0.1-0.4-0.2-0.8-0.3-1.2
	C298.5,469.6,298.5,469.4,298.4,469.2z M209.7,595c-0.6-2.3-1.4-4.1-2.6-5.6c-0.2-0.3-0.4-0.5-0.7-0.8c-0.2-0.2-0.5-0.5-0.7-0.7
	c-1.1-1-2.4-1.7-3.9-2.2c-1.3-0.4-2.8-0.6-4.4-0.6c-0.2,0-0.4,0-0.5,0c-1.2,0-2.5,0.2-3.7,0.7c-1.3,0.5-2.5,1.1-3.6,2
	c-0.1,0.1-0.3,0.2-0.4,0.3l0,0c-0.1,0.1-0.2,0.2-0.4,0.3l0,0c-0.2,0.2-0.5,0.5-0.7,0.7s-0.5,0.5-0.7,0.8s-0.4,0.6-0.6,0.9
	c-0.8,1.3-1.4,2.5-1.7,4v0.1L209.7,595C209.7,595.1,209.7,595,209.7,595z M298.9,470.9C298.9,471,299,471,298.9,470.9L298.9,470.9z
	 M298.4,469.2L298.4,469.2L298.4,469.2c0-0.1,0-0.1,0-0.1c0-0.1-0.1-0.2-0.1-0.3c-0.1-0.2-0.2-0.5-0.3-0.7l0,0
	c-0.1-0.1-0.1-0.3-0.2-0.4s-0.1-0.2-0.2-0.3l0,0c-0.1-0.2-0.2-0.3-0.3-0.5c-0.1-0.1-0.2-0.3-0.3-0.4c0,0,0-0.1-0.1-0.1
	c-0.1-0.1-0.1-0.2-0.2-0.3c-0.1-0.1-0.1-0.1-0.1-0.2c0,0,0-0.1-0.1-0.1l-0.1-0.2c-0.2-0.2-0.3-0.4-0.5-0.6c-0.2-0.3-0.5-0.5-0.7-0.7
	c-0.1-0.1-0.2-0.2-0.4-0.3l0,0c-0.1-0.1-0.3-0.2-0.4-0.3c-0.8-0.6-1.6-1.1-2.6-1.5c-1.4-0.5-3-0.9-4.7-1c-0.2,0-0.5,0-0.7,0
	c-0.5,0-1,0-1.6,0.1c-0.3,0.1-0.7,0.1-1,0.2c-0.5,0.1-1,0.2-1.5,0.4c-0.3,0.1-0.5,0.2-0.8,0.3c-0.1,0-0.2,0.1-0.3,0.1
	c-0.2,0.1-0.4,0.2-0.6,0.3c-0.7,0.3-1.4,0.8-2,1.3c0,0,0,0-0.1,0c-0.1,0.1-0.2,0.2-0.3,0.3c-0.1,0.1-0.1,0.1-0.2,0.2l-0.1,0.1
	l-0.1,0.1c-0.1,0.1-0.3,0.2-0.4,0.4c-0.3,0.3-0.6,0.7-0.9,1.1c-0.1,0.1-0.2,0.2-0.2,0.3c-0.1,0.2-0.3,0.4-0.4,0.6s-0.2,0.3-0.3,0.5
	c-0.2,0.2-0.3,0.5-0.4,0.7c-0.5,0.8-0.8,1.7-1,2.7c0,0.1,0,0.1,0,0.2h0.1l12.2-0.1h4.1l8.1-0.1h0.1c-0.1-0.4-0.2-0.8-0.3-1.2
	C298.5,469.6,298.5,469.4,298.4,469.2z M298.3,605c0.1,3.4,1.3,6.6,3.3,9.3c3.3-3,6.8-6.1,10.3-9.3H298.3z M311.3,585.2
	c-1.4,0-2.9,0.3-4.2,0.7c-1.3,0.5-2.5,1.1-3.6,2s-2,1.9-2.8,3.1c-0.8,1.3-1.4,2.7-1.8,4.1h23.8l0.6-0.6
	C321.7,588.2,317.7,585.2,311.3,585.2z M298.9,470.9c-0.3-1.1-0.7-2.1-1.1-3c0-0.1-0.1-0.2-0.1-0.2c-0.2-0.4-0.4-0.8-0.6-1.2
	c0,0,0-0.1-0.1-0.1c-0.1-0.2-0.2-0.4-0.3-0.5c-0.1-0.1-0.2-0.3-0.3-0.4c-0.1-0.2-0.2-0.3-0.4-0.5c-0.2-0.3-0.5-0.5-0.7-0.7
	s-0.5-0.5-0.8-0.7c-0.8-0.6-1.6-1.1-2.6-1.5c-1.4-0.5-3-0.9-4.7-1c-0.2,0-0.4,0-0.6,0h-0.2v0.1c-0.5,0-1,0-1.6,0.1
	c-0.3,0-0.7,0.1-1,0.2c-0.5,0.1-0.9,0.2-1.4,0.4c-0.2,0.1-0.4,0.1-0.5,0.2l0,0c-0.5,0.2-1,0.4-1.5,0.7c-0.2,0.1-0.3,0.2-0.5,0.3
	c-0.1,0.1-0.2,0.1-0.3,0.2c-0.3,0.2-0.6,0.4-0.9,0.6c-1.1,0.9-2,1.9-2.8,3.1c-0.3,0.5-0.6,1-0.8,1.5c-0.3,0.6-0.6,1.3-0.8,2
	c-0.1,0.2-0.1,0.4-0.2,0.5h0.3h12.2h4.1L298.9,470.9C298.9,471,298.9,470.9,298.9,470.9z M205.4,587.6c-0.4-0.4-0.9-0.7-1.4-0.9l0,0
	c-0.3-0.2-0.6-0.3-0.9-0.4c-0.1,0-0.1-0.1-0.2-0.1c-0.3-0.1-0.7-0.3-1-0.4c-1.3-0.4-2.8-0.6-4.4-0.6c-0.2,0-0.4,0-0.5,0
	c-1.2,0.1-2.5,0.3-3.7,0.7c-1.3,0.5-2.5,1.1-3.6,2c-0.1,0.1-0.3,0.2-0.4,0.3l0,0c-0.1,0.1-0.3,0.2-0.4,0.3l0,0
	c-0.2,0.2-0.5,0.5-0.7,0.7c-0.4,0.5-0.8,1-1.2,1.6c-0.8,1.3-1.4,2.6-1.7,4.1h24.6C208.9,591.7,207.4,589.2,205.4,587.6z
	 M205.4,587.6c-0.4-0.4-0.9-0.7-1.4-0.9l0,0c-0.3-0.2-0.6-0.3-0.9-0.4c-0.1,0-0.1-0.1-0.2-0.1c-0.3-0.1-0.7-0.3-1-0.4
	c-1.3-0.4-2.8-0.6-4.4-0.6c-0.2,0-0.4,0-0.5,0c-1.2,0.1-2.5,0.3-3.7,0.7c-1.3,0.5-2.5,1.1-3.6,2c-0.1,0.1-0.3,0.2-0.4,0.3l0,0
	c-0.1,0.1-0.3,0.2-0.4,0.3l0,0c-0.2,0.2-0.5,0.5-0.7,0.7c-0.4,0.5-0.8,1-1.2,1.6c-0.8,1.3-1.4,2.6-1.7,4.1h24.6
	C208.9,591.7,207.4,589.2,205.4,587.6z M298.9,470.9c-0.3-1.1-0.7-2.1-1.1-3c0-0.1-0.1-0.2-0.1-0.2c-0.2-0.4-0.4-0.8-0.6-1.2
	c0,0,0-0.1-0.1-0.1c-0.1-0.2-0.2-0.4-0.3-0.5c-0.1-0.1-0.2-0.3-0.3-0.4c-0.1-0.2-0.2-0.3-0.4-0.5c-0.2-0.3-0.5-0.5-0.7-0.7
	s-0.5-0.5-0.8-0.7c-0.8-0.6-1.6-1.1-2.6-1.5c-1.4-0.5-3-0.9-4.7-1c-0.2,0-0.4,0-0.6,0h-0.2v0.1c-0.5,0-1,0-1.6,0.1
	c-0.3,0-0.7,0.1-1,0.2c-0.5,0.1-0.9,0.2-1.4,0.4c-0.2,0.1-0.4,0.1-0.5,0.2l0,0c-0.5,0.2-1,0.4-1.5,0.7c-0.2,0.1-0.3,0.2-0.5,0.3
	c-0.1,0.1-0.2,0.1-0.3,0.2c-0.3,0.2-0.6,0.4-0.9,0.6c-1.1,0.9-2,1.9-2.8,3.1c-0.3,0.5-0.6,1-0.8,1.5c-0.3,0.6-0.6,1.3-0.8,2
	c-0.1,0.2-0.1,0.4-0.2,0.5h0.3h12.2h4.1L298.9,470.9C298.9,471,298.9,470.9,298.9,470.9z M414.7,589.8c-0.9-1-2-1.8-3.1-2.5
	c1.8,5,4.3,9.7,7.4,14C418.9,596.6,417.4,592.8,414.7,589.8z M299,471L299,471L299,471C299,470.9,299,470.9,299,471
	c-0.1-0.5-0.3-0.9-0.4-1.2c-0.2-0.7-0.5-1.3-0.8-1.9c0-0.1-0.1-0.1-0.1-0.2c-0.3-0.5-0.5-0.9-0.7-1.3c-0.1-0.1-0.1-0.2-0.2-0.3
	c-0.1-0.1-0.1-0.1-0.1-0.2c0,0,0-0.1-0.1-0.1l-0.1-0.2c0,0,0-0.1-0.1-0.1c-0.1-0.2-0.2-0.3-0.4-0.5l-0.7-0.7
	c-0.1-0.1-0.2-0.2-0.4-0.3l0,0c-0.5-0.4-1-0.8-1.5-1.1c-0.1,0-0.2-0.1-0.2-0.1c-0.4-0.2-0.8-0.4-1.2-0.6c-1.4-0.5-3-0.9-4.8-1
	c-0.2,0-0.5,0-0.7,0c-0.9,0-1.7,0.1-2.6,0.3c-1.8,0.4-3.6,1.2-5.1,2.4c-0.3,0.2-0.5,0.4-0.8,0.7c-0.2,0.2-0.4,0.4-0.6,0.7
	c-0.3,0.3-0.6,0.7-0.9,1.1c-0.2,0.2-0.3,0.5-0.5,0.7c-0.1,0.2-0.2,0.3-0.3,0.5c-0.6,1.1-1.1,2.2-1.4,3.4v0.1v0.1L299,471
	C299,471.1,299,471,299,471z M207.1,589.4c-0.2-0.3-0.4-0.5-0.7-0.8c-0.2-0.2-0.5-0.5-0.7-0.7c-0.1-0.1-0.2-0.2-0.4-0.3
	c-0.4-0.4-0.9-0.7-1.4-0.9l0,0c-0.3-0.2-0.6-0.3-0.9-0.4c-0.1,0-0.1-0.1-0.2-0.1c-0.3-0.1-0.7-0.3-1-0.4c-1.3-0.4-2.8-0.6-4.4-0.6
	c-0.2,0-0.4,0-0.5,0c-0.7,0-1.5,0-2.2,0.2c-0.5,0.1-1,0.2-1.5,0.4c-1.3,0.5-2.5,1.1-3.6,2c-0.1,0.1-0.2,0.2-0.4,0.3l0,0
	c-0.3,0.3-0.6,0.6-0.9,0.9l-0.1,0.1c0,0,0,0.1-0.1,0.1c0,0-0.1,0-0.1,0.1c-0.1,0.2-0.2,0.3-0.4,0.5c-0.1,0.1-0.2,0.2-0.3,0.3
	c-0.2,0.3-0.4,0.6-0.6,0.9c-0.8,1.3-1.4,2.6-1.7,4.1h24.6C209.1,592.8,208.3,590.9,207.1,589.4z M207.1,589.4
	c-0.2-0.3-0.4-0.5-0.7-0.8c-0.2-0.2-0.5-0.5-0.7-0.7c-0.1-0.1-0.2-0.2-0.4-0.3c-0.4-0.4-0.9-0.7-1.4-0.9l0,0
	c-0.3-0.2-0.6-0.3-0.9-0.4c-0.1,0-0.1-0.1-0.2-0.1c-0.3-0.1-0.7-0.3-1-0.4c-1.3-0.4-2.8-0.6-4.4-0.6c-0.2,0-0.4,0-0.5,0
	c-0.7,0-1.5,0-2.2,0.2c-0.5,0.1-1,0.2-1.5,0.4c-1.3,0.5-2.5,1.1-3.6,2c-0.1,0.1-0.2,0.2-0.4,0.3l0,0c-0.3,0.3-0.6,0.6-0.9,0.9
	l-0.1,0.1c0,0,0,0.1-0.1,0.1c0,0-0.1,0-0.1,0.1c-0.1,0.2-0.2,0.3-0.4,0.5c-0.1,0.1-0.2,0.2-0.3,0.3c-0.2,0.3-0.4,0.6-0.6,0.9
	c-0.8,1.3-1.4,2.6-1.7,4.1h24.6C209.1,592.8,208.3,590.9,207.1,589.4z M299,471L299,471L299,471C299,470.9,299,470.9,299,471
	c-0.1-0.5-0.3-0.9-0.4-1.2c-0.2-0.7-0.5-1.3-0.8-1.9c0-0.1-0.1-0.1-0.1-0.2c-0.3-0.5-0.5-0.9-0.7-1.3c-0.1-0.1-0.1-0.2-0.2-0.3
	c-0.1-0.1-0.1-0.1-0.1-0.2c0,0,0-0.1-0.1-0.1l-0.1-0.2c0,0,0-0.1-0.1-0.1c-0.1-0.2-0.2-0.3-0.4-0.5l-0.7-0.7
	c-0.1-0.1-0.2-0.2-0.4-0.3l0,0c-0.5-0.4-1-0.8-1.5-1.1c-0.1,0-0.2-0.1-0.2-0.1c-0.4-0.2-0.8-0.4-1.2-0.6c-1.4-0.5-3-0.9-4.8-1
	c-0.2,0-0.5,0-0.7,0c-0.9,0-1.7,0.1-2.6,0.3c-1.8,0.4-3.6,1.2-5.1,2.4c-0.3,0.2-0.5,0.4-0.8,0.7c-0.2,0.2-0.4,0.4-0.6,0.7
	c-0.3,0.3-0.6,0.7-0.9,1.1c-0.2,0.2-0.3,0.5-0.5,0.7c-0.1,0.2-0.2,0.3-0.3,0.5c-0.6,1.1-1.1,2.2-1.4,3.4v0.1v0.1L299,471
	C299,471.1,299,471,299,471z M524.3,590.9c-0.1,0.1-0.2,0.3-0.2,0.4l2.2-2.8C525.5,589.2,524.8,590,524.3,590.9z M299,471L299,471
	L299,471C299,470.9,299,470.9,299,471c-0.1-0.5-0.3-0.9-0.4-1.2c-0.2-0.7-0.5-1.3-0.8-1.9c0-0.1-0.1-0.1-0.1-0.2
	c-0.3-0.5-0.5-0.9-0.7-1.3c-0.1-0.1-0.1-0.2-0.2-0.3c-0.1-0.1-0.1-0.1-0.1-0.2c0,0,0-0.1-0.1-0.1l-0.1-0.2c0,0,0-0.1-0.1-0.1
	c-0.1-0.2-0.2-0.3-0.4-0.5l-0.7-0.7c-0.1-0.1-0.2-0.2-0.4-0.3l0,0c-0.5-0.4-1-0.8-1.5-1.1c-0.1,0-0.2-0.1-0.2-0.1
	c-0.4-0.2-0.8-0.4-1.2-0.6c-1.4-0.5-3-0.9-4.8-1c-0.2,0-0.5,0-0.7,0c-0.9,0-1.7,0.1-2.6,0.3c-1.8,0.4-3.6,1.2-5.1,2.4
	c-0.3,0.2-0.5,0.4-0.8,0.7c-0.2,0.2-0.4,0.4-0.6,0.7c-0.3,0.3-0.6,0.7-0.9,1.1c-0.2,0.2-0.3,0.5-0.5,0.7c-0.1,0.2-0.2,0.3-0.3,0.5
	c-0.6,1.1-1.1,2.2-1.4,3.4v0.1v0.1L299,471C299,471.1,299,471,299,471z M207.1,589.4c-0.2-0.3-0.4-0.5-0.7-0.8
	c-0.2-0.2-0.5-0.5-0.7-0.7c-0.1-0.1-0.2-0.2-0.4-0.3c-0.4-0.4-0.9-0.7-1.4-0.9l0,0c-0.3-0.2-0.6-0.3-0.9-0.4c-0.1,0-0.1-0.1-0.2-0.1
	c-0.3-0.1-0.7-0.3-1-0.4c-1.3-0.4-2.8-0.6-4.4-0.6c-0.2,0-0.4,0-0.5,0c-0.7,0-1.5,0-2.2,0.2c-0.5,0.1-1,0.2-1.5,0.4
	c-1.3,0.5-2.5,1.1-3.6,2c-0.1,0.1-0.2,0.2-0.4,0.3l0,0c-0.3,0.3-0.6,0.6-0.9,0.9l-0.1,0.1c0,0,0,0.1-0.1,0.1c0,0-0.1,0-0.1,0.1
	c-0.1,0.2-0.2,0.3-0.4,0.5c-0.1,0.1-0.2,0.2-0.3,0.3c-0.2,0.3-0.4,0.6-0.6,0.9c-0.8,1.3-1.4,2.6-1.7,4.1h24.6
	C209.1,592.8,208.3,590.9,207.1,589.4z M207.1,589.4c-0.2-0.3-0.4-0.5-0.7-0.8c-0.2-0.2-0.5-0.5-0.7-0.7c-0.1-0.1-0.2-0.2-0.4-0.3
	c-0.4-0.4-0.9-0.7-1.4-0.9l0,0c-0.3-0.2-0.6-0.3-0.9-0.4c-0.1,0-0.1-0.1-0.2-0.1c-0.3-0.1-0.7-0.3-1-0.4c-1.3-0.4-2.8-0.6-4.4-0.6
	c-0.2,0-0.4,0-0.5,0c-0.7,0-1.5,0-2.2,0.2c-0.5,0.1-1,0.2-1.5,0.4c-1.3,0.5-2.5,1.1-3.6,2c-0.1,0.1-0.2,0.2-0.4,0.3l0,0
	c-0.3,0.3-0.6,0.6-0.9,0.9l-0.1,0.1c0,0,0,0.1-0.1,0.1c0,0-0.1,0-0.1,0.1c-0.1,0.2-0.2,0.3-0.4,0.5c-0.1,0.1-0.2,0.2-0.3,0.3
	c-0.2,0.3-0.4,0.6-0.6,0.9c-0.8,1.3-1.4,2.6-1.7,4.1h24.6C209.1,592.8,208.3,590.9,207.1,589.4z M299,471L299,471L299,471
	C299,470.9,299,470.9,299,471c-0.1-0.5-0.3-0.9-0.4-1.2c-0.2-0.7-0.5-1.3-0.8-1.9c0-0.1-0.1-0.1-0.1-0.2c-0.3-0.5-0.5-0.9-0.7-1.3
	c-0.1-0.1-0.1-0.2-0.2-0.3c-0.1-0.1-0.1-0.1-0.1-0.2c0,0,0-0.1-0.1-0.1l-0.1-0.2c0,0,0-0.1-0.1-0.1c-0.1-0.2-0.2-0.3-0.4-0.5
	l-0.7-0.7c-0.1-0.1-0.2-0.2-0.4-0.3l0,0c-0.5-0.4-1-0.8-1.5-1.1c-0.1,0-0.2-0.1-0.2-0.1c-0.4-0.2-0.8-0.4-1.2-0.6
	c-1.4-0.5-3-0.9-4.8-1c-0.2,0-0.5,0-0.7,0c-0.9,0-1.7,0.1-2.6,0.3c-1.8,0.4-3.6,1.2-5.1,2.4c-0.3,0.2-0.5,0.4-0.8,0.7
	c-0.2,0.2-0.4,0.4-0.6,0.7c-0.3,0.3-0.6,0.7-0.9,1.1c-0.2,0.2-0.3,0.5-0.5,0.7c-0.1,0.2-0.2,0.3-0.3,0.5c-0.6,1.1-1.1,2.2-1.4,3.4
	v0.1v0.1L299,471C299,471.1,299,471,299,471z M299,471L299,471L299,471C299,470.9,299,470.9,299,471c-0.1-0.5-0.3-0.9-0.4-1.2
	c-0.2-0.7-0.5-1.3-0.8-1.9c0-0.1-0.1-0.1-0.1-0.2c-0.3-0.5-0.5-0.9-0.7-1.3c-0.1-0.1-0.1-0.2-0.2-0.3c-0.1-0.1-0.1-0.1-0.1-0.2
	c0,0,0-0.1-0.1-0.1l-0.1-0.2c0,0,0-0.1-0.1-0.1c-0.1-0.2-0.2-0.3-0.4-0.5l-0.7-0.7c-0.1-0.1-0.2-0.2-0.4-0.3l0,0
	c-0.5-0.4-1-0.8-1.5-1.1c-0.1,0-0.2-0.1-0.2-0.1c-0.4-0.2-0.8-0.4-1.2-0.6c-1.4-0.5-3-0.9-4.8-1c-0.2,0-0.5,0-0.7,0
	c-0.9,0-1.7,0.1-2.6,0.3c-1.8,0.4-3.6,1.2-5.1,2.4c-0.3,0.2-0.5,0.4-0.8,0.7c-0.2,0.2-0.4,0.4-0.6,0.7c-0.3,0.3-0.6,0.7-0.9,1.1
	c-0.2,0.2-0.3,0.5-0.5,0.7c-0.1,0.2-0.2,0.3-0.3,0.5c-0.6,1.1-1.1,2.2-1.4,3.4v0.1v0.1L299,471C299,471.1,299,471,299,471z
	 M207.1,589.4c-0.2-0.3-0.4-0.5-0.7-0.8c-0.2-0.2-0.5-0.5-0.7-0.7c-0.1-0.1-0.2-0.2-0.4-0.3c-0.4-0.4-0.9-0.7-1.4-0.9l0,0
	c-0.3-0.2-0.6-0.3-0.9-0.4c-0.1,0-0.1-0.1-0.2-0.1c-0.3-0.1-0.7-0.3-1-0.4c-1.3-0.4-2.8-0.6-4.4-0.6c-0.2,0-0.4,0-0.5,0
	c-0.7,0-1.5,0-2.2,0.2c-0.5,0.1-1,0.2-1.5,0.4c-1.3,0.5-2.5,1.1-3.6,2c-0.1,0.1-0.2,0.2-0.4,0.3l0,0c-0.3,0.3-0.6,0.6-0.9,0.9
	l-0.1,0.1c0,0,0,0.1-0.1,0.1c0,0-0.1,0-0.1,0.1c-0.1,0.2-0.2,0.3-0.4,0.5c-0.1,0.1-0.2,0.2-0.3,0.3c-0.2,0.3-0.4,0.6-0.6,0.9
	c-0.8,1.3-1.4,2.6-1.7,4.1h24.6C209.1,592.8,208.3,590.9,207.1,589.4z M207.1,589.4c-0.2-0.3-0.4-0.5-0.7-0.8
	c-0.2-0.2-0.5-0.5-0.7-0.7c-0.1-0.1-0.2-0.2-0.4-0.3c-0.4-0.4-0.9-0.7-1.4-0.9l0,0c-0.3-0.2-0.6-0.3-0.9-0.4c-0.1,0-0.1-0.1-0.2-0.1
	c-0.3-0.1-0.7-0.3-1-0.4c-1.3-0.4-2.8-0.6-4.4-0.6c-0.2,0-0.4,0-0.5,0c-0.7,0-1.5,0-2.2,0.2c-0.5,0.1-1,0.2-1.5,0.4
	c-1.3,0.5-2.5,1.1-3.6,2c-0.1,0.1-0.2,0.2-0.4,0.3l0,0c-0.3,0.3-0.6,0.6-0.9,0.9l-0.1,0.1c0,0,0,0.1-0.1,0.1c0,0-0.1,0-0.1,0.1
	c-0.1,0.2-0.2,0.3-0.4,0.5c-0.1,0.1-0.2,0.2-0.3,0.3c-0.2,0.3-0.4,0.6-0.6,0.9c-0.8,1.3-1.4,2.6-1.7,4.1h24.6
	C209.1,592.8,208.3,590.9,207.1,589.4z M299,471L299,471L299,471C299,470.9,299,470.9,299,471c-0.1-0.5-0.3-0.9-0.4-1.2
	c-0.2-0.7-0.5-1.3-0.8-1.9c0-0.1-0.1-0.1-0.1-0.2c-0.3-0.5-0.5-0.9-0.7-1.3c-0.1-0.1-0.1-0.2-0.2-0.3c-0.1-0.1-0.1-0.1-0.1-0.2
	c0,0,0-0.1-0.1-0.1l-0.1-0.2c0,0,0-0.1-0.1-0.1c-0.1-0.2-0.2-0.3-0.4-0.5l-0.7-0.7c-0.1-0.1-0.2-0.2-0.4-0.3l0,0
	c-0.5-0.4-1-0.8-1.5-1.1c-0.1,0-0.2-0.1-0.2-0.1c-0.4-0.2-0.8-0.4-1.2-0.6c-1.4-0.5-3-0.9-4.8-1c-0.2,0-0.5,0-0.7,0
	c-0.9,0-1.7,0.1-2.6,0.3c-1.8,0.4-3.6,1.2-5.1,2.4c-0.3,0.2-0.5,0.4-0.8,0.7c-0.2,0.2-0.4,0.4-0.6,0.7c-0.3,0.3-0.6,0.7-0.9,1.1
	c-0.2,0.2-0.3,0.5-0.5,0.7c-0.1,0.2-0.2,0.3-0.3,0.5c-0.6,1.1-1.1,2.2-1.4,3.4v0.1v0.1L299,471C299,471.1,299,471,299,471z M299,471
	L299,471L299,471C299,470.9,299,470.9,299,471c-0.1-0.5-0.3-0.9-0.4-1.2c-0.2-0.7-0.5-1.3-0.8-1.9c0-0.1-0.1-0.1-0.1-0.2
	c-0.3-0.5-0.5-0.9-0.7-1.3c-0.1-0.1-0.1-0.2-0.2-0.3c-0.1-0.1-0.1-0.1-0.1-0.2c0,0,0-0.1-0.1-0.1l-0.1-0.2c0,0,0-0.1-0.1-0.1
	c-0.1-0.2-0.2-0.3-0.4-0.5l-0.7-0.7c-0.1-0.1-0.2-0.2-0.4-0.3l0,0c-0.5-0.4-1-0.8-1.5-1.1c-0.1,0-0.2-0.1-0.2-0.1
	c-0.4-0.2-0.8-0.4-1.2-0.6c-1.4-0.5-3-0.9-4.8-1c-0.2,0-0.5,0-0.7,0c-0.9,0-1.7,0.1-2.6,0.3c-1.8,0.4-3.6,1.2-5.1,2.4
	c-0.3,0.2-0.5,0.4-0.8,0.7c-0.2,0.2-0.4,0.4-0.6,0.7c-0.3,0.3-0.6,0.7-0.9,1.1c-0.2,0.2-0.3,0.5-0.5,0.7c-0.1,0.2-0.2,0.3-0.3,0.5
	c-0.6,1.1-1.1,2.2-1.4,3.4v0.1v0.1L299,471C299,471.1,299,471,299,471z M207.1,589.4c-0.2-0.3-0.4-0.5-0.7-0.8
	c-0.2-0.2-0.5-0.5-0.7-0.7c-0.1-0.1-0.2-0.2-0.4-0.3c-0.4-0.4-0.9-0.7-1.4-0.9l0,0c-0.3-0.2-0.6-0.3-0.9-0.4c-0.1,0-0.1-0.1-0.2-0.1
	c-0.3-0.1-0.7-0.3-1-0.4c-1.3-0.4-2.8-0.6-4.4-0.6c-0.2,0-0.4,0-0.5,0c-0.7,0-1.5,0-2.2,0.2c-0.5,0.1-1,0.2-1.5,0.4
	c-1.3,0.5-2.5,1.1-3.6,2c-0.1,0.1-0.2,0.2-0.4,0.3l0,0c-0.3,0.3-0.6,0.6-0.9,0.9l-0.1,0.1c0,0,0,0.1-0.1,0.1c0,0-0.1,0-0.1,0.1
	c-0.1,0.2-0.2,0.3-0.4,0.5c-0.1,0.1-0.2,0.2-0.3,0.3c-0.2,0.3-0.4,0.6-0.6,0.9c-0.8,1.3-1.4,2.6-1.7,4.1h24.6
	C209.1,592.8,208.3,590.9,207.1,589.4z M207.1,589.4c-0.2-0.3-0.4-0.5-0.7-0.8c-0.2-0.2-0.5-0.5-0.7-0.7c-0.1-0.1-0.2-0.2-0.4-0.3
	c-0.4-0.4-0.9-0.7-1.4-0.9l0,0c-0.3-0.2-0.6-0.3-0.9-0.4c-0.1,0-0.1-0.1-0.2-0.1c-0.3-0.1-0.7-0.3-1-0.4c-1.3-0.4-2.8-0.6-4.4-0.6
	c-0.2,0-0.4,0-0.5,0c-0.7,0-1.5,0-2.2,0.2c-0.5,0.1-1,0.2-1.5,0.4c-1.3,0.5-2.5,1.1-3.6,2c-0.1,0.1-0.2,0.2-0.4,0.3l0,0
	c-0.3,0.3-0.6,0.6-0.9,0.9l-0.1,0.1c0,0,0,0.1-0.1,0.1c0,0-0.1,0-0.1,0.1c-0.1,0.2-0.2,0.3-0.4,0.5c-0.1,0.1-0.2,0.2-0.3,0.3
	c-0.2,0.3-0.4,0.6-0.6,0.9c-0.8,1.3-1.4,2.6-1.7,4.1h24.6C209.1,592.8,208.3,590.9,207.1,589.4z M299,471L299,471L299,471
	C299,470.9,299,470.9,299,471c-0.1-0.5-0.3-0.9-0.4-1.2c-0.2-0.7-0.5-1.3-0.8-1.9c0-0.1-0.1-0.1-0.1-0.2c-0.3-0.5-0.5-0.9-0.7-1.3
	c-0.1-0.1-0.1-0.2-0.2-0.3c-0.1-0.1-0.1-0.1-0.1-0.2c0,0,0-0.1-0.1-0.1l-0.1-0.2c0,0,0-0.1-0.1-0.1c-0.1-0.2-0.2-0.3-0.4-0.5
	l-0.7-0.7c-0.1-0.1-0.2-0.2-0.4-0.3l0,0c-0.5-0.4-1-0.8-1.5-1.1c-0.1,0-0.2-0.1-0.2-0.1c-0.4-0.2-0.8-0.4-1.2-0.6
	c-1.4-0.5-3-0.9-4.8-1c-0.2,0-0.5,0-0.7,0c-0.9,0-1.7,0.1-2.6,0.3c-1.8,0.4-3.6,1.2-5.1,2.4c-0.3,0.2-0.5,0.4-0.8,0.7
	c-0.2,0.2-0.4,0.4-0.6,0.7c-0.3,0.3-0.6,0.7-0.9,1.1c-0.2,0.2-0.3,0.5-0.5,0.7c-0.1,0.2-0.2,0.3-0.3,0.5c-0.6,1.1-1.1,2.2-1.4,3.4
	v0.1v0.1L299,471C299,471.1,299,471,299,471z M299,471L299,471L299,471C299,470.9,299,470.9,299,471c-0.1-0.5-0.3-0.9-0.4-1.2
	c-0.2-0.7-0.5-1.3-0.8-1.9c0-0.1-0.1-0.1-0.1-0.2c-0.3-0.5-0.5-0.9-0.7-1.3c-0.1-0.1-0.1-0.2-0.2-0.3c-0.1-0.1-0.1-0.1-0.1-0.2
	c0,0,0-0.1-0.1-0.1l-0.1-0.2c0,0,0-0.1-0.1-0.1c-0.1-0.2-0.2-0.3-0.4-0.5l-0.7-0.7c-0.1-0.1-0.2-0.2-0.4-0.3l0,0
	c-0.5-0.4-1-0.8-1.5-1.1c-0.1,0-0.2-0.1-0.2-0.1c-0.4-0.2-0.8-0.4-1.2-0.6c-1.4-0.5-3-0.9-4.8-1c-0.2,0-0.5,0-0.7,0
	c-0.9,0-1.7,0.1-2.6,0.3c-1.8,0.4-3.6,1.2-5.1,2.4c-0.3,0.2-0.5,0.4-0.8,0.7c-0.2,0.2-0.4,0.4-0.6,0.7c-0.3,0.3-0.6,0.7-0.9,1.1
	c-0.2,0.2-0.3,0.5-0.5,0.7c-0.1,0.2-0.2,0.3-0.3,0.5c-0.6,1.1-1.1,2.2-1.4,3.4v0.1v0.1L299,471C299,471.1,299,471,299,471z
	 M207.1,589.4c-0.2-0.3-0.4-0.5-0.7-0.8c-0.2-0.2-0.5-0.5-0.7-0.7c-0.1-0.1-0.2-0.2-0.4-0.3c-0.4-0.4-0.9-0.7-1.4-0.9l0,0
	c-0.3-0.2-0.6-0.3-0.9-0.4c-0.1,0-0.1-0.1-0.2-0.1c-0.3-0.1-0.7-0.3-1-0.4c-1.3-0.4-2.8-0.6-4.4-0.6c-0.2,0-0.4,0-0.5,0
	c-0.7,0-1.5,0-2.2,0.2c-0.5,0.1-1,0.2-1.5,0.4c-1.3,0.5-2.5,1.1-3.6,2c-0.1,0.1-0.2,0.2-0.4,0.3l0,0c-0.3,0.3-0.6,0.6-0.9,0.9
	l-0.1,0.1c0,0,0,0.1-0.1,0.1c0,0-0.1,0-0.1,0.1c-0.1,0.2-0.2,0.3-0.4,0.5c-0.1,0.1-0.2,0.2-0.3,0.3c-0.2,0.3-0.4,0.6-0.6,0.9
	c-0.8,1.3-1.4,2.6-1.7,4.1h24.6C209.1,592.8,208.3,590.9,207.1,589.4z M207.1,589.4c-0.2-0.3-0.4-0.5-0.7-0.8
	c-0.2-0.2-0.5-0.5-0.7-0.7c-0.1-0.1-0.2-0.2-0.4-0.3c-0.4-0.4-0.9-0.7-1.4-0.9l0,0c-0.3-0.2-0.6-0.3-0.9-0.4c-0.1,0-0.1-0.1-0.2-0.1
	c-0.3-0.1-0.7-0.3-1-0.4c-1.3-0.4-2.8-0.6-4.4-0.6c-0.2,0-0.4,0-0.5,0c-0.7,0-1.5,0-2.2,0.2c-0.5,0.1-1,0.2-1.5,0.4
	c-1.3,0.5-2.5,1.1-3.6,2c-0.1,0.1-0.2,0.2-0.4,0.3l0,0c-0.3,0.3-0.6,0.6-0.9,0.9l-0.1,0.1c0,0,0,0.1-0.1,0.1c0,0-0.1,0-0.1,0.1
	c-0.1,0.2-0.2,0.3-0.4,0.5c-0.1,0.1-0.2,0.2-0.3,0.3c-0.2,0.3-0.4,0.6-0.6,0.9c-0.8,1.3-1.4,2.6-1.7,4.1h24.6
	C209.1,592.8,208.3,590.9,207.1,589.4z M299,471L299,471L299,471C299,470.9,299,470.9,299,471c-0.1-0.5-0.3-0.9-0.4-1.2
	c-0.2-0.7-0.5-1.3-0.8-1.9c0-0.1-0.1-0.1-0.1-0.2c-0.3-0.5-0.5-0.9-0.7-1.3c-0.1-0.1-0.1-0.2-0.2-0.3c-0.1-0.1-0.1-0.1-0.1-0.2
	c0,0,0-0.1-0.1-0.1l-0.1-0.2c0,0,0-0.1-0.1-0.1c-0.1-0.2-0.2-0.3-0.4-0.5l-0.7-0.7c-0.1-0.1-0.2-0.2-0.4-0.3l0,0
	c-0.5-0.4-1-0.8-1.5-1.1c-0.1,0-0.2-0.1-0.2-0.1c-0.4-0.2-0.8-0.4-1.2-0.6c-1.4-0.5-3-0.9-4.8-1c-0.2,0-0.5,0-0.7,0
	c-0.9,0-1.7,0.1-2.6,0.3c-1.8,0.4-3.6,1.2-5.1,2.4c-0.3,0.2-0.5,0.4-0.8,0.7c-0.2,0.2-0.4,0.4-0.6,0.7c-0.3,0.3-0.6,0.7-0.9,1.1
	c-0.2,0.2-0.3,0.5-0.5,0.7c-0.1,0.2-0.2,0.3-0.3,0.5c-0.6,1.1-1.1,2.2-1.4,3.4v0.1v0.1L299,471C299,471.1,299,471,299,471z M299,471
	L299,471L299,471C299,470.9,299,470.9,299,471c-0.1-0.5-0.3-0.9-0.4-1.2c-0.2-0.7-0.5-1.3-0.8-1.9c0-0.1-0.1-0.1-0.1-0.2
	c-0.3-0.5-0.5-0.9-0.7-1.3c-0.1-0.1-0.1-0.2-0.2-0.3c-0.1-0.1-0.1-0.1-0.1-0.2c0,0,0-0.1-0.1-0.1l-0.1-0.2c0,0,0-0.1-0.1-0.1
	c-0.1-0.2-0.2-0.3-0.4-0.5l-0.7-0.7c-0.1-0.1-0.2-0.2-0.4-0.3l0,0c-0.5-0.4-1-0.8-1.5-1.1c-0.1,0-0.2-0.1-0.2-0.1
	c-0.4-0.2-0.8-0.4-1.2-0.6c-1.4-0.5-3-0.9-4.8-1c-0.2,0-0.5,0-0.7,0c-0.9,0-1.7,0.1-2.6,0.3c-1.8,0.4-3.6,1.2-5.1,2.4
	c-0.3,0.2-0.5,0.4-0.8,0.7c-0.2,0.2-0.4,0.4-0.6,0.7c-0.3,0.3-0.6,0.7-0.9,1.1c-0.2,0.2-0.3,0.5-0.5,0.7c-0.1,0.2-0.2,0.3-0.3,0.5
	c-0.6,1.1-1.1,2.2-1.4,3.4v0.1v0.1L299,471C299,471.1,299,471,299,471z M207.1,589.4c-0.2-0.3-0.4-0.5-0.7-0.8
	c-0.2-0.2-0.5-0.5-0.7-0.7c-0.1-0.1-0.2-0.2-0.4-0.3c-0.4-0.4-0.9-0.7-1.4-0.9l0,0c-0.3-0.2-0.6-0.3-0.9-0.4c-0.1,0-0.1-0.1-0.2-0.1
	c-0.3-0.1-0.7-0.3-1-0.4c-1.3-0.4-2.8-0.6-4.4-0.6c-0.2,0-0.4,0-0.5,0c-0.7,0-1.5,0-2.2,0.2c-0.5,0.1-1,0.2-1.5,0.4
	c-1.3,0.5-2.5,1.1-3.6,2c-0.1,0.1-0.2,0.2-0.4,0.3l0,0c-0.3,0.3-0.6,0.6-0.9,0.9l-0.1,0.1c0,0,0,0.1-0.1,0.1c0,0-0.1,0-0.1,0.1
	c-0.1,0.2-0.2,0.3-0.4,0.5c-0.1,0.1-0.2,0.2-0.3,0.3c-0.2,0.3-0.4,0.6-0.6,0.9c-0.8,1.3-1.4,2.6-1.7,4.1h24.6
	C209.1,592.8,208.3,590.9,207.1,589.4z M207.1,589.4c-0.2-0.3-0.4-0.5-0.7-0.8c-0.2-0.2-0.5-0.5-0.7-0.7c-0.1-0.1-0.2-0.2-0.4-0.3
	c-0.4-0.4-0.9-0.7-1.4-0.9l0,0c-0.3-0.2-0.6-0.3-0.9-0.4c-0.1,0-0.1-0.1-0.2-0.1c-0.3-0.1-0.7-0.3-1-0.4c-1.3-0.4-2.8-0.6-4.4-0.6
	c-0.2,0-0.4,0-0.5,0c-0.7,0-1.5,0-2.2,0.2c-0.5,0.1-1,0.2-1.5,0.4c-1.3,0.5-2.5,1.1-3.6,2c-0.1,0.1-0.2,0.2-0.4,0.3l0,0
	c-0.3,0.3-0.6,0.6-0.9,0.9l-0.1,0.1c0,0,0,0.1-0.1,0.1c0,0-0.1,0-0.1,0.1c-0.1,0.2-0.2,0.3-0.4,0.5c-0.1,0.1-0.2,0.2-0.3,0.3
	c-0.2,0.3-0.4,0.6-0.6,0.9c-0.8,1.3-1.4,2.6-1.7,4.1h24.6C209.1,592.8,208.3,590.9,207.1,589.4z M299,471L299,471L299,471
	C299,470.9,299,470.9,299,471c-0.1-0.5-0.3-0.9-0.4-1.2c-0.2-0.7-0.5-1.3-0.8-1.9c0-0.1-0.1-0.1-0.1-0.2c-0.3-0.5-0.5-0.9-0.7-1.3
	c-0.1-0.1-0.1-0.2-0.2-0.3c-0.1-0.1-0.1-0.1-0.1-0.2c0,0,0-0.1-0.1-0.1l-0.1-0.2c0,0,0-0.1-0.1-0.1c-0.1-0.2-0.2-0.3-0.4-0.5
	l-0.7-0.7c-0.1-0.1-0.2-0.2-0.4-0.3l0,0c-0.5-0.4-1-0.8-1.5-1.1c-0.1,0-0.2-0.1-0.2-0.1c-0.4-0.2-0.8-0.4-1.2-0.6
	c-1.4-0.5-3-0.9-4.8-1c-0.2,0-0.5,0-0.7,0c-0.9,0-1.7,0.1-2.6,0.3c-1.8,0.4-3.6,1.2-5.1,2.4c-0.3,0.2-0.5,0.4-0.8,0.7
	c-0.2,0.2-0.4,0.4-0.6,0.7c-0.3,0.3-0.6,0.7-0.9,1.1c-0.2,0.2-0.3,0.5-0.5,0.7c-0.1,0.2-0.2,0.3-0.3,0.5c-0.6,1.1-1.1,2.2-1.4,3.4
	v0.1v0.1L299,471C299,471.1,299,471,299,471z M299,471L299,471L299,471C299,470.9,299,470.9,299,471c-0.1-0.5-0.3-0.9-0.4-1.2
	c-0.2-0.7-0.5-1.3-0.8-1.9c0-0.1-0.1-0.1-0.1-0.2c-0.3-0.5-0.5-0.9-0.7-1.3c-0.1-0.1-0.1-0.2-0.2-0.3c-0.1-0.1-0.1-0.1-0.1-0.2
	c0,0,0-0.1-0.1-0.1l-0.1-0.2c0,0,0-0.1-0.1-0.1c-0.1-0.2-0.2-0.3-0.4-0.5l-0.7-0.7c-0.1-0.1-0.2-0.2-0.4-0.3l0,0
	c-0.5-0.4-1-0.8-1.5-1.1c-0.1,0-0.2-0.1-0.2-0.1c-0.4-0.2-0.8-0.4-1.2-0.6c-1.4-0.5-3-0.9-4.8-1c-0.2,0-0.5,0-0.7,0
	c-0.9,0-1.7,0.1-2.6,0.3c-1.8,0.4-3.6,1.2-5.1,2.4c-0.3,0.2-0.5,0.4-0.8,0.7c-0.2,0.2-0.4,0.4-0.6,0.7c-0.3,0.3-0.6,0.7-0.9,1.1
	c-0.2,0.2-0.3,0.5-0.5,0.7c-0.1,0.2-0.2,0.3-0.3,0.5c-0.6,1.1-1.1,2.2-1.4,3.4v0.1v0.1L299,471C299,471.1,299,471,299,471z
	 M207.1,589.4c-0.2-0.3-0.4-0.5-0.7-0.8c-0.2-0.2-0.5-0.5-0.7-0.7c-0.1-0.1-0.2-0.2-0.4-0.3c-0.4-0.4-0.9-0.7-1.4-0.9l0,0
	c-0.3-0.2-0.6-0.3-0.9-0.4c-0.1,0-0.1-0.1-0.2-0.1c-0.3-0.1-0.7-0.3-1-0.4c-1.3-0.4-2.8-0.6-4.4-0.6c-0.2,0-0.4,0-0.5,0
	c-0.7,0-1.5,0-2.2,0.2c-0.5,0.1-1,0.2-1.5,0.4c-1.3,0.5-2.5,1.1-3.6,2c-0.1,0.1-0.2,0.2-0.4,0.3l0,0c-0.3,0.3-0.6,0.6-0.9,0.9
	l-0.1,0.1c0,0,0,0.1-0.1,0.1c0,0-0.1,0-0.1,0.1c-0.1,0.2-0.2,0.3-0.4,0.5c-0.1,0.1-0.2,0.2-0.3,0.3c-0.2,0.3-0.4,0.6-0.6,0.9
	c-0.8,1.3-1.4,2.6-1.7,4.1h24.6C209.1,592.8,208.3,590.9,207.1,589.4z M207.1,589.4c-0.2-0.3-0.4-0.5-0.7-0.8
	c-0.2-0.2-0.5-0.5-0.7-0.7c-0.1-0.1-0.2-0.2-0.4-0.3c-0.4-0.4-0.9-0.7-1.4-0.9l0,0c-0.3-0.2-0.6-0.3-0.9-0.4c-0.1,0-0.1-0.1-0.2-0.1
	c-0.3-0.1-0.7-0.3-1-0.4c-1.3-0.4-2.8-0.6-4.4-0.6c-0.2,0-0.4,0-0.5,0c-0.7,0-1.5,0-2.2,0.2c-0.5,0.1-1,0.2-1.5,0.4
	c-1.3,0.5-2.5,1.1-3.6,2c-0.1,0.1-0.2,0.2-0.4,0.3l0,0c-0.3,0.3-0.6,0.6-0.9,0.9l-0.1,0.1c0,0,0,0.1-0.1,0.1c0,0-0.1,0-0.1,0.1
	c-0.1,0.2-0.2,0.3-0.4,0.5c-0.1,0.1-0.2,0.2-0.3,0.3c-0.2,0.3-0.4,0.6-0.6,0.9c-0.8,1.3-1.4,2.6-1.7,4.1h24.6
	C209.1,592.8,208.3,590.9,207.1,589.4z M299,471L299,471L299,471C299,470.9,299,470.9,299,471c-0.1-0.5-0.3-0.9-0.4-1.2
	c-0.2-0.7-0.5-1.3-0.8-1.9c0-0.1-0.1-0.1-0.1-0.2c-0.3-0.5-0.5-0.9-0.7-1.3c-0.1-0.1-0.1-0.2-0.2-0.3c-0.1-0.1-0.1-0.1-0.1-0.2
	c0,0,0-0.1-0.1-0.1l-0.1-0.2c0,0,0-0.1-0.1-0.1c-0.1-0.2-0.2-0.3-0.4-0.5l-0.7-0.7c-0.1-0.1-0.2-0.2-0.4-0.3l0,0
	c-0.5-0.4-1-0.8-1.5-1.1c-0.1,0-0.2-0.1-0.2-0.1c-0.4-0.2-0.8-0.4-1.2-0.6c-1.4-0.5-3-0.9-4.8-1c-0.2,0-0.5,0-0.7,0
	c-0.9,0-1.7,0.1-2.6,0.3c-1.8,0.4-3.6,1.2-5.1,2.4c-0.3,0.2-0.5,0.4-0.8,0.7c-0.2,0.2-0.4,0.4-0.6,0.7c-0.3,0.3-0.6,0.7-0.9,1.1
	c-0.2,0.2-0.3,0.5-0.5,0.7c-0.1,0.2-0.2,0.3-0.3,0.5c-0.6,1.1-1.1,2.2-1.4,3.4v0.1v0.1L299,471C299,471.1,299,471,299,471z M299,471
	L299,471L299,471C299,470.9,299,470.9,299,471c-0.1-0.5-0.3-0.9-0.4-1.2c-0.2-0.7-0.5-1.3-0.8-1.9c0-0.1-0.1-0.1-0.1-0.2
	c-0.3-0.5-0.5-0.9-0.7-1.3c-0.1-0.1-0.1-0.2-0.2-0.3c-0.1-0.1-0.1-0.1-0.1-0.2c0,0,0-0.1-0.1-0.1l-0.1-0.2c0,0,0-0.1-0.1-0.1
	c-0.1-0.2-0.2-0.3-0.4-0.5l-0.7-0.7c-0.1-0.1-0.2-0.2-0.4-0.3l0,0c-0.5-0.4-1-0.8-1.5-1.1c-0.1,0-0.2-0.1-0.2-0.1
	c-0.4-0.2-0.8-0.4-1.2-0.6c-1.4-0.5-3-0.9-4.8-1c-0.2,0-0.5,0-0.7,0c-0.9,0-1.7,0.1-2.6,0.3c-1.8,0.4-3.6,1.2-5.1,2.4
	c-0.3,0.2-0.5,0.4-0.8,0.7c-0.2,0.2-0.4,0.4-0.6,0.7c-0.3,0.3-0.6,0.7-0.9,1.1c-0.2,0.2-0.3,0.5-0.5,0.7c-0.1,0.2-0.2,0.3-0.3,0.5
	c-0.6,1.1-1.1,2.2-1.4,3.4v0.1v0.1L299,471C299,471.1,299,471,299,471z M207.1,589.4c-0.2-0.3-0.4-0.5-0.7-0.8
	c-0.2-0.2-0.5-0.5-0.7-0.7c-0.1-0.1-0.2-0.2-0.4-0.3c-0.4-0.4-0.9-0.7-1.4-0.9l0,0c-0.3-0.2-0.6-0.3-0.9-0.4c-0.1,0-0.1-0.1-0.2-0.1
	c-0.3-0.1-0.7-0.3-1-0.4c-1.3-0.4-2.8-0.6-4.4-0.6c-0.2,0-0.4,0-0.5,0c-0.7,0-1.5,0-2.2,0.2c-0.5,0.1-1,0.2-1.5,0.4
	c-1.3,0.5-2.5,1.1-3.6,2c-0.1,0.1-0.2,0.2-0.4,0.3l0,0c-0.3,0.3-0.6,0.6-0.9,0.9l-0.1,0.1c0,0,0,0.1-0.1,0.1c0,0-0.1,0-0.1,0.1
	c-0.1,0.2-0.2,0.3-0.4,0.5c-0.1,0.1-0.2,0.2-0.3,0.3c-0.2,0.3-0.4,0.6-0.6,0.9c-0.8,1.3-1.4,2.6-1.7,4.1h24.6
	C209.1,592.8,208.3,590.9,207.1,589.4z M146.1,596.2c-1.5,5.4-2.2,11-2.2,16.6C147.1,607.9,147.8,601.8,146.1,596.2z M207.1,589.4
	c-0.2-0.3-0.4-0.5-0.7-0.8c-0.2-0.2-0.5-0.5-0.7-0.7c-0.1-0.1-0.2-0.2-0.4-0.3c-0.4-0.4-0.9-0.7-1.4-0.9l0,0
	c-0.3-0.2-0.6-0.3-0.9-0.4c-0.1,0-0.1-0.1-0.2-0.1c-0.3-0.1-0.7-0.3-1-0.4c-1.3-0.4-2.8-0.6-4.4-0.6c-0.2,0-0.4,0-0.5,0
	c-0.7,0-1.5,0-2.2,0.2c-0.5,0.1-1,0.2-1.5,0.4c-1.3,0.5-2.5,1.1-3.6,2c-0.1,0.1-0.2,0.2-0.4,0.3l0,0c-0.3,0.3-0.6,0.6-0.9,0.9
	l-0.1,0.1c0,0,0,0.1-0.1,0.1c0,0-0.1,0-0.1,0.1c-0.1,0.2-0.2,0.3-0.4,0.5c-0.1,0.1-0.2,0.2-0.3,0.3c-0.2,0.3-0.4,0.6-0.6,0.9
	c-0.8,1.3-1.4,2.6-1.7,4.1h24.6C209.1,592.8,208.3,590.9,207.1,589.4z M299,471L299,471C299,470.9,299,470.9,299,471
	C299,470.9,299,470.9,299,471c0-0.1,0-0.2,0-0.2l0,0c-0.2-1-0.6-1.7-0.9-2.5c0-0.1,0-0.1-0.1-0.2c-0.2-0.3-0.3-0.7-0.5-1
	c-0.1-0.1-0.1-0.2-0.2-0.4c-0.2-0.3-0.3-0.6-0.5-0.8c0,0,0-0.1-0.1-0.1c-0.2-0.3-0.4-0.6-0.6-0.8c-0.2-0.2-0.5-0.5-0.7-0.7
	c-0.6-0.5-1.2-1-1.9-1.4c-0.1,0-0.2-0.1-0.2-0.1c-0.4-0.2-0.8-0.4-1.2-0.6c-1.4-0.5-3-0.9-4.8-1c-0.2,0-0.4,0-0.6,0h-0.2l0,0
	c-0.2,0-0.3,0-0.5,0c-0.7,0-1.3,0.1-2,0.3c-0.5,0.1-1,0.2-1.5,0.4c-0.2,0.1-0.4,0.1-0.5,0.2l0,0c-0.1,0-0.2,0.1-0.3,0.1
	c-0.1,0-0.2,0.1-0.3,0.1c-0.2,0.1-0.4,0.2-0.6,0.3c-0.6,0.3-1.2,0.7-1.8,1.2c-0.3,0.2-0.6,0.5-0.9,0.8c-0.2,0.2-0.4,0.4-0.6,0.7
	c-0.4,0.4-0.7,0.9-1,1.3c-0.1,0.1-0.2,0.2-0.2,0.3c-0.8,1.2-1.4,2.6-1.7,3.9c0,0,0,0,0,0.1l0,0v0.1L299,471L299,471z M299,471
	L299,471C299,470.9,299,470.9,299,471C299,470.9,299,470.9,299,471C299,470.9,299,470.9,299,471L299,471c0-0.1,0-0.2,0-0.2l0,0
	c-0.2-1-0.6-1.7-0.9-2.5c0-0.1,0-0.1-0.1-0.2c-0.2-0.3-0.3-0.7-0.5-1c-0.1-0.1-0.1-0.2-0.2-0.4c-0.2-0.3-0.3-0.6-0.5-0.8
	c0,0,0-0.1-0.1-0.1c-0.2-0.3-0.4-0.6-0.6-0.8c-0.2-0.2-0.5-0.5-0.7-0.7c-0.6-0.5-1.2-1-1.9-1.4c-0.1,0-0.2-0.1-0.2-0.1
	c-0.4-0.2-0.8-0.4-1.2-0.6c-1.4-0.5-3-0.9-4.8-1c-0.2,0-0.4,0-0.6,0h-0.2c-0.2,0-0.3,0-0.5,0c-0.7,0-1.4,0.1-2.1,0.3
	c-1.2,0.2-2.3,0.7-3.3,1.2h-0.1c-0.3,0.2-0.6,0.3-0.8,0.5l-0.1,0.1c-0.3,0.2-0.6,0.4-0.9,0.6c-1.1,0.9-2,1.9-2.8,3.1
	c-0.3,0.5-0.6,1-0.8,1.5c-0.3,0.6-0.6,1.3-0.8,2c-0.1,0.2-0.1,0.4-0.2,0.5h0.2c0,0.1,0,0.1,0,0.2H299C299,471.1,299,471,299,471
	L299,471L299,471z M209.8,595c-0.9-3.3-2.4-5.8-4.4-7.4c-0.4-0.4-0.9-0.7-1.4-0.9l0,0c-0.3-0.2-0.6-0.3-0.9-0.4
	c-0.1,0-0.1-0.1-0.2-0.1c-0.3-0.1-0.7-0.3-1-0.4c-1.3-0.4-2.8-0.6-4.4-0.6c-0.2,0-0.4,0-0.5,0c-0.7,0-1.5,0-2.2,0.2
	c-0.5,0.1-1,0.2-1.5,0.4c-1.3,0.5-2.5,1.1-3.6,2c-0.1,0.1-0.2,0.2-0.4,0.3l0,0c-0.1,0.1-0.2,0.2-0.4,0.3c-0.2,0.2-0.3,0.3-0.5,0.5
	l-0.1,0.1c0,0,0,0.1-0.1,0.1c0,0-0.1,0-0.1,0.1c-0.2,0.2-0.5,0.5-0.7,0.8s-0.4,0.6-0.6,0.9c-0.8,1.3-1.4,2.6-1.7,4.1l0,0v0.1
	L209.8,595c-0.1,0.1-0.1,0-0.1,0H209.8z M299,471L299,471C299,470.9,299,470.9,299,471C299,470.9,299,470.9,299,471
	C299,470.9,299,470.9,299,471L299,471c0-0.1,0-0.2,0-0.2l0,0c-0.2-1-0.6-1.7-0.9-2.5c0-0.1,0-0.1-0.1-0.2c-0.2-0.3-0.3-0.7-0.5-1
	c-0.1-0.1-0.1-0.2-0.2-0.4c-0.2-0.3-0.3-0.6-0.5-0.8c0,0,0-0.1-0.1-0.1c-0.2-0.3-0.4-0.6-0.6-0.8c-0.2-0.2-0.5-0.5-0.7-0.7
	c-0.6-0.5-1.2-1-1.9-1.4c-0.1,0-0.2-0.1-0.2-0.1c-0.4-0.2-0.8-0.4-1.2-0.6c-1.4-0.5-3-0.9-4.8-1c-0.2,0-0.4,0-0.6,0h-0.2
	c-0.2,0-0.3,0-0.5,0c-0.7,0-1.4,0.1-2.1,0.3c-1.2,0.2-2.3,0.7-3.3,1.2h-0.1c-0.3,0.2-0.6,0.3-0.8,0.5l-0.1,0.1
	c-0.3,0.2-0.6,0.4-0.9,0.6c-1.1,0.9-2,1.9-2.8,3.1c-0.3,0.5-0.6,1-0.8,1.5c-0.3,0.6-0.6,1.3-0.8,2c-0.1,0.2-0.1,0.4-0.2,0.5h0.2
	c0,0.1,0,0.1,0,0.2H299C299,471.1,299,471,299,471L299,471L299,471z M205.4,587.6c-0.4-0.4-0.9-0.7-1.4-0.9l0,0
	c-0.3-0.2-0.6-0.3-0.9-0.4c-0.1,0-0.1-0.1-0.2-0.1c-0.3-0.1-0.7-0.3-1-0.4c-1.3-0.4-2.8-0.6-4.4-0.6c-0.2,0-0.4,0-0.5,0
	c-0.7,0-1.5,0-2.2,0.2c-0.5,0.1-1,0.2-1.5,0.4c-1.3,0.5-2.5,1.1-3.6,2c-0.1,0.1-0.2,0.2-0.4,0.3l0,0c-0.1,0.1-0.2,0.2-0.4,0.3
	c-0.2,0.2-0.3,0.3-0.5,0.5l-0.1,0.1c0,0,0,0.1-0.1,0.1c0,0-0.1,0-0.1,0.1c-0.2,0.2-0.5,0.5-0.7,0.8s-0.4,0.6-0.6,0.9
	c-0.8,1.3-1.4,2.6-1.7,4.1l0,0v0.1h24.6V595h0.1C208.9,591.7,207.4,589.2,205.4,587.6z M207.1,589.4c-0.2-0.3-0.4-0.5-0.7-0.8
	c-0.2-0.2-0.5-0.5-0.7-0.7c-0.1-0.1-0.2-0.2-0.4-0.3c-0.4-0.4-0.9-0.7-1.4-0.9l0,0c-0.3-0.2-0.6-0.3-0.9-0.4c-0.1,0-0.1-0.1-0.2-0.1
	c-0.3-0.1-0.7-0.3-1-0.4c-1.3-0.4-2.8-0.6-4.4-0.6c-0.2,0-0.4,0-0.5,0c-0.7,0-1.5,0-2.2,0.2c-0.5,0.1-1,0.2-1.5,0.4
	c-1.3,0.5-2.5,1.1-3.6,2c-0.1,0.1-0.2,0.2-0.4,0.3l0,0c-0.3,0.3-0.6,0.6-0.9,0.9l-0.1,0.1c0,0,0,0.1-0.1,0.1c0,0-0.1,0-0.1,0.1
	c-0.1,0.2-0.2,0.3-0.4,0.5c-0.1,0.1-0.2,0.2-0.3,0.3c-0.2,0.3-0.4,0.6-0.6,0.9c-0.8,1.3-1.4,2.6-1.7,4.1h24.6
	C209.1,592.8,208.3,590.9,207.1,589.4z M299,470.9L299,470.9L299,470.9c0-0.1,0-0.1,0-0.2l0,0c-0.2-0.6-0.4-1.1-0.5-1.6
	c0-0.1-0.1-0.2-0.1-0.3c-0.1-0.2-0.2-0.4-0.3-0.6v-0.1l0,0c0,0,0,0-0.1-0.1s-0.1-0.2-0.2-0.4c0-0.1-0.1-0.1-0.1-0.2l0,0
	c0-0.1-0.1-0.3-0.2-0.4c0,0,0,0-0.1-0.1s-0.1-0.2-0.1-0.3c-0.2-0.3-0.3-0.6-0.5-0.8c0,0,0-0.1-0.1-0.1c-0.2-0.3-0.4-0.6-0.6-0.8
	l-0.7-0.7c-0.6-0.5-1.2-1-1.9-1.4c-0.1,0-0.2-0.1-0.2-0.1c-0.4-0.2-0.8-0.4-1.2-0.6c-1.4-0.5-3-0.9-4.7-1h-0.1c-0.2,0-0.4,0-0.5,0
	h-0.2c-0.2,0-0.3,0-0.5,0c-0.7,0-1.4,0.1-2.1,0.3c-1.2,0.3-2.3,0.7-3.4,1.3c-0.2,0.1-0.3,0.2-0.5,0.3c-0.2,0.1-0.4,0.2-0.5,0.4l0,0
	c-0.2,0.1-0.4,0.3-0.6,0.4c-0.1,0-0.1,0.1-0.2,0.2c-0.2,0.2-0.4,0.4-0.6,0.5c-0.2,0.2-0.5,0.5-0.7,0.7c-0.1,0.1-0.2,0.3-0.3,0.4
	c-0.1,0.1-0.2,0.3-0.3,0.4c-0.1,0.1-0.2,0.2-0.2,0.3c-0.1,0.2-0.3,0.3-0.4,0.5c-0.3,0.4-0.5,0.9-0.7,1.3c-0.4,0.9-0.8,1.8-1,2.7v0.1
	h0.1h12.2L299,470.9L299,470.9L299,470.9C299,471,299,471,299,470.9C299,471,299,471,299,470.9L299,470.9L299,470.9L299,470.9z
	 M299,471L299,471L299,471C299,470.9,299,470.9,299,471c-0.1-0.5-0.3-0.9-0.4-1.2c-0.2-0.7-0.5-1.3-0.8-1.9c0-0.1-0.1-0.1-0.1-0.2
	c-0.3-0.5-0.5-0.9-0.7-1.3c-0.1-0.1-0.1-0.2-0.2-0.3c-0.1-0.1-0.1-0.1-0.1-0.2c0,0,0-0.1-0.1-0.1l-0.1-0.2c0,0,0-0.1-0.1-0.1
	c-0.1-0.2-0.2-0.3-0.4-0.5l-0.7-0.7c-0.1-0.1-0.2-0.2-0.4-0.3l0,0c-0.5-0.4-1-0.8-1.5-1.1c-0.1,0-0.2-0.1-0.2-0.1
	c-0.4-0.2-0.8-0.4-1.2-0.6c-1.4-0.5-3-0.9-4.8-1c-0.2,0-0.5,0-0.7,0c-0.9,0-1.7,0.1-2.6,0.3c-1.8,0.4-3.6,1.2-5.1,2.4
	c-0.3,0.2-0.5,0.4-0.8,0.7c-0.2,0.2-0.4,0.4-0.6,0.7c-0.3,0.3-0.6,0.7-0.9,1.1c-0.2,0.2-0.3,0.5-0.5,0.7c-0.1,0.2-0.2,0.3-0.3,0.5
	c-0.6,1.1-1.1,2.2-1.4,3.4v0.1v0.1L299,471C299,471.1,299,471,299,471z M207.1,589.4c-0.2-0.3-0.4-0.5-0.7-0.8
	c-0.2-0.2-0.5-0.5-0.7-0.7c-0.1-0.1-0.2-0.2-0.4-0.3c-0.4-0.4-0.9-0.7-1.4-0.9l0,0c-0.3-0.2-0.6-0.3-0.9-0.4c-0.1,0-0.1-0.1-0.2-0.1
	c-0.3-0.1-0.7-0.3-1-0.4c-1.3-0.4-2.8-0.6-4.4-0.6c-0.2,0-0.4,0-0.5,0c-0.7,0-1.5,0-2.2,0.2c-0.5,0.1-1,0.2-1.5,0.4
	c-1.3,0.5-2.5,1.1-3.6,2c-0.1,0.1-0.2,0.2-0.4,0.3l0,0c-0.3,0.3-0.6,0.6-0.9,0.9l-0.1,0.1c0,0,0,0.1-0.1,0.1c0,0-0.1,0-0.1,0.1
	c-0.1,0.2-0.2,0.3-0.4,0.5c-0.1,0.1-0.2,0.2-0.3,0.3c-0.2,0.3-0.4,0.6-0.6,0.9c-0.8,1.3-1.4,2.6-1.7,4.1h24.6
	C209.1,592.8,208.3,590.9,207.1,589.4z M207.1,589.4c-0.2-0.3-0.4-0.5-0.7-0.8c-0.2-0.2-0.5-0.5-0.7-0.7c-0.1-0.1-0.2-0.2-0.4-0.3
	c-0.4-0.4-0.9-0.7-1.4-0.9l0,0c-0.3-0.2-0.6-0.3-0.9-0.4c-0.1,0-0.1-0.1-0.2-0.1c-0.3-0.1-0.7-0.3-1-0.4c-1.3-0.4-2.8-0.6-4.4-0.6
	c-0.2,0-0.4,0-0.5,0c-0.7,0-1.5,0-2.2,0.2c-0.5,0.1-1,0.2-1.5,0.4c-1.3,0.5-2.5,1.1-3.6,2c-0.1,0.1-0.2,0.2-0.4,0.3l0,0
	c-0.3,0.3-0.6,0.6-0.9,0.9l-0.1,0.1c0,0,0,0.1-0.1,0.1c0,0-0.1,0-0.1,0.1c-0.1,0.2-0.2,0.3-0.4,0.5c-0.1,0.1-0.2,0.2-0.3,0.3
	c-0.2,0.3-0.4,0.6-0.6,0.9c-0.8,1.3-1.4,2.6-1.7,4.1h24.6C209.1,592.8,208.3,590.9,207.1,589.4z M299,471L299,471L299,471
	C299,470.9,299,470.9,299,471c-0.1-0.5-0.3-0.9-0.4-1.2c-0.2-0.7-0.5-1.3-0.8-1.9c0-0.1-0.1-0.1-0.1-0.2c-0.3-0.5-0.5-0.9-0.7-1.3
	c-0.1-0.1-0.1-0.2-0.2-0.3c-0.1-0.1-0.1-0.1-0.1-0.2c0,0,0-0.1-0.1-0.1l-0.1-0.2c0,0,0-0.1-0.1-0.1c-0.1-0.2-0.2-0.3-0.4-0.5
	l-0.7-0.7c-0.1-0.1-0.2-0.2-0.4-0.3l0,0c-0.5-0.4-1-0.8-1.5-1.1c-0.1,0-0.2-0.1-0.2-0.1c-0.4-0.2-0.8-0.4-1.2-0.6
	c-1.4-0.5-3-0.9-4.8-1c-0.2,0-0.5,0-0.7,0c-0.9,0-1.7,0.1-2.6,0.3c-1.8,0.4-3.6,1.2-5.1,2.4c-0.3,0.2-0.5,0.4-0.8,0.7
	c-0.2,0.2-0.4,0.4-0.6,0.7c-0.3,0.3-0.6,0.7-0.9,1.1c-0.2,0.2-0.3,0.5-0.5,0.7c-0.1,0.2-0.2,0.3-0.3,0.5c-0.6,1.1-1.1,2.2-1.4,3.4
	v0.1v0.1L299,471C299,471.1,299,471,299,471z M299,471L299,471L299,471C299,470.9,299,470.9,299,471c-0.1-0.5-0.3-0.9-0.4-1.2
	c-0.2-0.7-0.5-1.3-0.8-1.9c0-0.1-0.1-0.1-0.1-0.2c-0.3-0.5-0.5-0.9-0.7-1.3c-0.1-0.1-0.1-0.2-0.2-0.3c-0.1-0.1-0.1-0.1-0.1-0.2
	c0,0,0-0.1-0.1-0.1l-0.1-0.2c0,0,0-0.1-0.1-0.1c-0.1-0.2-0.2-0.3-0.4-0.5l-0.7-0.7c-0.1-0.1-0.2-0.2-0.4-0.3l0,0
	c-0.5-0.4-1-0.8-1.5-1.1c-0.1,0-0.2-0.1-0.2-0.1c-0.4-0.2-0.8-0.4-1.2-0.6c-1.4-0.5-3-0.9-4.8-1c-0.2,0-0.5,0-0.7,0
	c-0.9,0-1.7,0.1-2.6,0.3c-1.8,0.4-3.6,1.2-5.1,2.4c-0.3,0.2-0.5,0.4-0.8,0.7c-0.2,0.2-0.4,0.4-0.6,0.7c-0.3,0.3-0.6,0.7-0.9,1.1
	c-0.2,0.2-0.3,0.5-0.5,0.7c-0.1,0.2-0.2,0.3-0.3,0.5c-0.6,1.1-1.1,2.2-1.4,3.4v0.1v0.1L299,471C299,471.1,299,471,299,471z
	 M207.1,589.4c-0.2-0.3-0.4-0.5-0.7-0.8c-0.2-0.2-0.5-0.5-0.7-0.7c-0.1-0.1-0.2-0.2-0.4-0.3c-0.4-0.4-0.9-0.7-1.4-0.9l0,0
	c-0.3-0.2-0.6-0.3-0.9-0.4c-0.1,0-0.1-0.1-0.2-0.1c-0.3-0.1-0.7-0.3-1-0.4c-1.3-0.4-2.8-0.6-4.4-0.6c-0.2,0-0.4,0-0.5,0
	c-0.7,0-1.5,0-2.2,0.2c-0.5,0.1-1,0.2-1.5,0.4c-1.3,0.5-2.5,1.1-3.6,2c-0.1,0.1-0.2,0.2-0.4,0.3l0,0c-0.3,0.3-0.6,0.6-0.9,0.9
	l-0.1,0.1c0,0,0,0.1-0.1,0.1c0,0-0.1,0-0.1,0.1c-0.1,0.2-0.2,0.3-0.4,0.5c-0.1,0.1-0.2,0.2-0.3,0.3c-0.2,0.3-0.4,0.6-0.6,0.9
	c-0.8,1.3-1.4,2.6-1.7,4.1h24.6C209.1,592.8,208.3,590.9,207.1,589.4z M207.1,589.4c-0.2-0.3-0.4-0.5-0.7-0.8
	c-0.2-0.2-0.5-0.5-0.7-0.7c-0.1-0.1-0.2-0.2-0.4-0.3c-0.4-0.4-0.9-0.7-1.4-0.9l0,0c-0.3-0.2-0.6-0.3-0.9-0.4c-0.1,0-0.1-0.1-0.2-0.1
	c-0.3-0.1-0.7-0.3-1-0.4c-1.3-0.4-2.8-0.6-4.4-0.6c-0.2,0-0.4,0-0.5,0c-0.7,0-1.5,0-2.2,0.2c-0.5,0.1-1,0.2-1.5,0.4
	c-1.3,0.5-2.5,1.1-3.6,2c-0.1,0.1-0.2,0.2-0.4,0.3l0,0c-0.3,0.3-0.6,0.6-0.9,0.9l-0.1,0.1c0,0,0,0.1-0.1,0.1c0,0-0.1,0-0.1,0.1
	c-0.1,0.2-0.2,0.3-0.4,0.5c-0.1,0.1-0.2,0.2-0.3,0.3c-0.2,0.3-0.4,0.6-0.6,0.9c-0.8,1.3-1.4,2.6-1.7,4.1h24.6
	C209.1,592.8,208.3,590.9,207.1,589.4z M299,471L299,471L299,471C299,470.9,299,470.9,299,471c-0.1-0.5-0.3-0.9-0.4-1.2
	c-0.2-0.7-0.5-1.3-0.8-1.9c0-0.1-0.1-0.1-0.1-0.2c-0.3-0.5-0.5-0.9-0.7-1.3c-0.1-0.1-0.1-0.2-0.2-0.3c-0.1-0.1-0.1-0.1-0.1-0.2
	c0,0,0-0.1-0.1-0.1l-0.1-0.2c0,0,0-0.1-0.1-0.1c-0.1-0.2-0.2-0.3-0.4-0.5l-0.7-0.7c-0.1-0.1-0.2-0.2-0.4-0.3l0,0
	c-0.5-0.4-1-0.8-1.5-1.1c-0.1,0-0.2-0.1-0.2-0.1c-0.4-0.2-0.8-0.4-1.2-0.6c-1.4-0.5-3-0.9-4.8-1c-0.2,0-0.5,0-0.7,0
	c-0.9,0-1.7,0.1-2.6,0.3c-1.8,0.4-3.6,1.2-5.1,2.4c-0.3,0.2-0.5,0.4-0.8,0.7c-0.2,0.2-0.4,0.4-0.6,0.7c-0.3,0.3-0.6,0.7-0.9,1.1
	c-0.2,0.2-0.3,0.5-0.5,0.7c-0.1,0.2-0.2,0.3-0.3,0.5c-0.6,1.1-1.1,2.2-1.4,3.4v0.1v0.1L299,471C299,471.1,299,471,299,471z M299,471
	L299,471L299,471C299,470.9,299,470.9,299,471c-0.1-0.5-0.3-0.9-0.4-1.2c-0.2-0.7-0.5-1.3-0.8-1.9c0-0.1-0.1-0.1-0.1-0.2
	c-0.3-0.5-0.5-0.9-0.7-1.3c-0.1-0.1-0.1-0.2-0.2-0.3c-0.1-0.1-0.1-0.1-0.1-0.2c0,0,0-0.1-0.1-0.1l-0.1-0.2c0,0,0-0.1-0.1-0.1
	c-0.1-0.2-0.2-0.3-0.4-0.5l-0.7-0.7c-0.1-0.1-0.2-0.2-0.4-0.3l0,0c-0.5-0.4-1-0.8-1.5-1.1c-0.1,0-0.2-0.1-0.2-0.1
	c-0.4-0.2-0.8-0.4-1.2-0.6c-1.4-0.5-3-0.9-4.8-1c-0.2,0-0.5,0-0.7,0c-0.9,0-1.7,0.1-2.6,0.3c-1.8,0.4-3.6,1.2-5.1,2.4
	c-0.3,0.2-0.5,0.4-0.8,0.7c-0.2,0.2-0.4,0.4-0.6,0.7c-0.3,0.3-0.6,0.7-0.9,1.1c-0.2,0.2-0.3,0.5-0.5,0.7c-0.1,0.2-0.2,0.3-0.3,0.5
	c-0.6,1.1-1.1,2.2-1.4,3.4v0.1v0.1L299,471C299,471.1,299,471,299,471z M207.1,589.4c-0.2-0.3-0.4-0.5-0.7-0.8
	c-0.2-0.2-0.5-0.5-0.7-0.7c-0.1-0.1-0.2-0.2-0.4-0.3c-0.4-0.4-0.9-0.7-1.4-0.9l0,0c-0.3-0.2-0.6-0.3-0.9-0.4c-0.1,0-0.1-0.1-0.2-0.1
	c-0.3-0.1-0.7-0.3-1-0.4c-1.3-0.4-2.8-0.6-4.4-0.6c-0.2,0-0.4,0-0.5,0c-0.7,0-1.5,0-2.2,0.2c-0.5,0.1-1,0.2-1.5,0.4
	c-1.3,0.5-2.5,1.1-3.6,2c-0.1,0.1-0.2,0.2-0.4,0.3l0,0c-0.3,0.3-0.6,0.6-0.9,0.9l-0.1,0.1c0,0,0,0.1-0.1,0.1c0,0-0.1,0-0.1,0.1
	c-0.1,0.2-0.2,0.3-0.4,0.5c-0.1,0.1-0.2,0.2-0.3,0.3c-0.2,0.3-0.4,0.6-0.6,0.9c-0.8,1.3-1.4,2.6-1.7,4.1h24.6
	C209.1,592.8,208.3,590.9,207.1,589.4z M207.1,589.4c-0.2-0.3-0.4-0.5-0.7-0.8c-0.2-0.2-0.5-0.5-0.7-0.7c-0.1-0.1-0.2-0.2-0.4-0.3
	c-0.4-0.4-0.9-0.7-1.4-0.9l0,0c-0.3-0.2-0.6-0.3-0.9-0.4c-0.1,0-0.1-0.1-0.2-0.1c-0.3-0.1-0.7-0.3-1-0.4c-1.3-0.4-2.8-0.6-4.4-0.6
	c-0.2,0-0.4,0-0.5,0c-0.7,0-1.5,0-2.2,0.2c-0.5,0.1-1,0.2-1.5,0.4c-1.3,0.5-2.5,1.1-3.6,2c-0.1,0.1-0.2,0.2-0.4,0.3l0,0
	c-0.3,0.3-0.6,0.6-0.9,0.9l-0.1,0.1c0,0,0,0.1-0.1,0.1c0,0-0.1,0-0.1,0.1c-0.1,0.2-0.2,0.3-0.4,0.5c-0.1,0.1-0.2,0.2-0.3,0.3
	c-0.2,0.3-0.4,0.6-0.6,0.9c-0.8,1.3-1.4,2.6-1.7,4.1h24.6C209.1,592.8,208.3,590.9,207.1,589.4z M299,471L299,471L299,471
	C299,470.9,299,470.9,299,471c-0.1-0.5-0.3-0.9-0.4-1.2c-0.2-0.7-0.5-1.3-0.8-1.9c0-0.1-0.1-0.1-0.1-0.2c-0.3-0.5-0.5-0.9-0.7-1.3
	c-0.1-0.1-0.1-0.2-0.2-0.3c-0.1-0.1-0.1-0.1-0.1-0.2c0,0,0-0.1-0.1-0.1l-0.1-0.2c0,0,0-0.1-0.1-0.1c-0.1-0.2-0.2-0.3-0.4-0.5
	l-0.7-0.7c-0.1-0.1-0.2-0.2-0.4-0.3l0,0c-0.5-0.4-1-0.8-1.5-1.1c-0.1,0-0.2-0.1-0.2-0.1c-0.4-0.2-0.8-0.4-1.2-0.6
	c-1.4-0.5-3-0.9-4.8-1c-0.2,0-0.5,0-0.7,0c-0.9,0-1.7,0.1-2.6,0.3c-1.8,0.4-3.6,1.2-5.1,2.4c-0.3,0.2-0.5,0.4-0.8,0.7
	c-0.2,0.2-0.4,0.4-0.6,0.7c-0.3,0.3-0.6,0.7-0.9,1.1c-0.2,0.2-0.3,0.5-0.5,0.7c-0.1,0.2-0.2,0.3-0.3,0.5c-0.6,1.1-1.1,2.2-1.4,3.4
	v0.1v0.1L299,471C299,471.1,299,471,299,471z M299,471L299,471L299,471C299,470.9,299,470.9,299,471c-0.1-0.5-0.3-0.9-0.4-1.2
	c-0.2-0.7-0.5-1.3-0.8-1.9c0-0.1-0.1-0.1-0.1-0.2c-0.3-0.5-0.5-0.9-0.7-1.3c-0.1-0.1-0.1-0.2-0.2-0.3c-0.1-0.1-0.1-0.1-0.1-0.2
	c0,0,0-0.1-0.1-0.1l-0.1-0.2c0,0,0-0.1-0.1-0.1c-0.1-0.2-0.2-0.3-0.4-0.5l-0.7-0.7c-0.1-0.1-0.2-0.2-0.4-0.3l0,0
	c-0.5-0.4-1-0.8-1.5-1.1c-0.1,0-0.2-0.1-0.2-0.1c-0.4-0.2-0.8-0.4-1.2-0.6c-1.4-0.5-3-0.9-4.8-1c-0.2,0-0.5,0-0.7,0
	c-0.9,0-1.7,0.1-2.6,0.3c-1.8,0.4-3.6,1.2-5.1,2.4c-0.3,0.2-0.5,0.4-0.8,0.7c-0.2,0.2-0.4,0.4-0.6,0.7c-0.3,0.3-0.6,0.7-0.9,1.1
	c-0.2,0.2-0.3,0.5-0.5,0.7c-0.1,0.2-0.2,0.3-0.3,0.5c-0.6,1.1-1.1,2.2-1.4,3.4v0.1v0.1L299,471C299,471.1,299,471,299,471z
	 M207.1,589.4c-0.2-0.3-0.4-0.5-0.7-0.8c-0.2-0.2-0.5-0.5-0.7-0.7c-0.1-0.1-0.2-0.2-0.4-0.3c-0.4-0.4-0.9-0.7-1.4-0.9l0,0
	c-0.3-0.2-0.6-0.3-0.9-0.4c-0.1,0-0.1-0.1-0.2-0.1c-0.3-0.1-0.7-0.3-1-0.4c-1.3-0.4-2.8-0.6-4.4-0.6c-0.2,0-0.4,0-0.5,0
	c-0.7,0-1.5,0-2.2,0.2c-0.5,0.1-1,0.2-1.5,0.4c-1.3,0.5-2.5,1.1-3.6,2c-0.1,0.1-0.2,0.2-0.4,0.3l0,0c-0.3,0.3-0.6,0.6-0.9,0.9
	l-0.1,0.1c0,0,0,0.1-0.1,0.1c0,0-0.1,0-0.1,0.1c-0.1,0.2-0.2,0.3-0.4,0.5c-0.1,0.1-0.2,0.2-0.3,0.3c-0.2,0.3-0.4,0.6-0.6,0.9
	c-0.8,1.3-1.4,2.6-1.7,4.1h24.6C209.1,592.8,208.3,590.9,207.1,589.4z M207.1,589.4c-0.2-0.3-0.4-0.5-0.7-0.8
	c-0.2-0.2-0.5-0.5-0.7-0.7c-0.1-0.1-0.2-0.2-0.4-0.3c-0.4-0.4-0.9-0.7-1.4-0.9l0,0c-0.3-0.2-0.6-0.3-0.9-0.4c-0.1,0-0.1-0.1-0.2-0.1
	c-0.3-0.1-0.7-0.3-1-0.4c-1.3-0.4-2.8-0.6-4.4-0.6c-0.2,0-0.4,0-0.5,0c-0.7,0-1.5,0-2.2,0.2c-0.5,0.1-1,0.2-1.5,0.4
	c-1.3,0.5-2.5,1.1-3.6,2c-0.1,0.1-0.2,0.2-0.4,0.3l0,0c-0.3,0.3-0.6,0.6-0.9,0.9l-0.1,0.1c0,0,0,0.1-0.1,0.1c0,0-0.1,0-0.1,0.1
	c-0.1,0.2-0.2,0.3-0.4,0.5c-0.1,0.1-0.2,0.2-0.3,0.3c-0.2,0.3-0.4,0.6-0.6,0.9c-0.8,1.3-1.4,2.6-1.7,4.1h24.6
	C209.1,592.8,208.3,590.9,207.1,589.4z M299,471L299,471L299,471C299,470.9,299,470.9,299,471c-0.1-0.5-0.3-0.9-0.4-1.2
	c-0.2-0.7-0.5-1.3-0.8-1.9c0-0.1-0.1-0.1-0.1-0.2c-0.3-0.5-0.5-0.9-0.7-1.3c-0.1-0.1-0.1-0.2-0.2-0.3c-0.1-0.1-0.1-0.1-0.1-0.2
	c0,0,0-0.1-0.1-0.1l-0.1-0.2c0,0,0-0.1-0.1-0.1c-0.1-0.2-0.2-0.3-0.4-0.5l-0.7-0.7c-0.1-0.1-0.2-0.2-0.4-0.3l0,0
	c-0.5-0.4-1-0.8-1.5-1.1c-0.1,0-0.2-0.1-0.2-0.1c-0.4-0.2-0.8-0.4-1.2-0.6c-1.4-0.5-3-0.9-4.8-1c-0.2,0-0.5,0-0.7,0
	c-0.9,0-1.7,0.1-2.6,0.3c-1.8,0.4-3.6,1.2-5.1,2.4c-0.3,0.2-0.5,0.4-0.8,0.7c-0.2,0.2-0.4,0.4-0.6,0.7c-0.3,0.3-0.6,0.7-0.9,1.1
	c-0.2,0.2-0.3,0.5-0.5,0.7c-0.1,0.2-0.2,0.3-0.3,0.5c-0.6,1.1-1.1,2.2-1.4,3.4v0.1v0.1L299,471C299,471.1,299,471,299,471z M299,471
	L299,471L299,471C299,470.9,299,470.9,299,471c-0.1-0.5-0.3-0.9-0.4-1.2c-0.2-0.7-0.5-1.3-0.8-1.9c0-0.1-0.1-0.1-0.1-0.2
	c-0.3-0.5-0.5-0.9-0.7-1.3c-0.1-0.1-0.1-0.2-0.2-0.3c-0.1-0.1-0.1-0.1-0.1-0.2c0,0,0-0.1-0.1-0.1l-0.1-0.2c0,0,0-0.1-0.1-0.1
	c-0.1-0.2-0.2-0.3-0.4-0.5l-0.7-0.7c-0.1-0.1-0.2-0.2-0.4-0.3l0,0c-0.5-0.4-1-0.8-1.5-1.1c-0.1,0-0.2-0.1-0.2-0.1
	c-0.4-0.2-0.8-0.4-1.2-0.6c-1.4-0.5-3-0.9-4.8-1c-0.2,0-0.5,0-0.7,0c-0.9,0-1.7,0.1-2.6,0.3c-1.8,0.4-3.6,1.2-5.1,2.4
	c-0.3,0.2-0.5,0.4-0.8,0.7c-0.2,0.2-0.4,0.4-0.6,0.7c-0.3,0.3-0.6,0.7-0.9,1.1c-0.2,0.2-0.3,0.5-0.5,0.7c-0.1,0.2-0.2,0.3-0.3,0.5
	c-0.6,1.1-1.1,2.2-1.4,3.4v0.1v0.1L299,471C299,471.1,299,471,299,471z M207.1,589.4c-0.2-0.3-0.4-0.5-0.7-0.8
	c-0.2-0.2-0.5-0.5-0.7-0.7c-0.1-0.1-0.2-0.2-0.4-0.3c-0.4-0.4-0.9-0.7-1.4-0.9l0,0c-0.3-0.2-0.6-0.3-0.9-0.4c-0.1,0-0.1-0.1-0.2-0.1
	c-0.3-0.1-0.7-0.3-1-0.4c-1.3-0.4-2.8-0.6-4.4-0.6c-0.2,0-0.4,0-0.5,0c-0.7,0-1.5,0-2.2,0.2c-0.5,0.1-1,0.2-1.5,0.4
	c-1.3,0.5-2.5,1.1-3.6,2c-0.1,0.1-0.2,0.2-0.4,0.3l0,0c-0.3,0.3-0.6,0.6-0.9,0.9l-0.1,0.1c0,0,0,0.1-0.1,0.1c0,0-0.1,0-0.1,0.1
	c-0.1,0.2-0.2,0.3-0.4,0.5c-0.1,0.1-0.2,0.2-0.3,0.3c-0.2,0.3-0.4,0.6-0.6,0.9c-0.8,1.3-1.4,2.6-1.7,4.1h24.6
	C209.1,592.8,208.3,590.9,207.1,589.4z M207.1,589.4c-0.2-0.3-0.4-0.5-0.7-0.8c-0.2-0.2-0.5-0.5-0.7-0.7c-0.1-0.1-0.2-0.2-0.4-0.3
	c-0.4-0.4-0.9-0.7-1.4-0.9l0,0c-0.3-0.2-0.6-0.3-0.9-0.4c-0.1,0-0.1-0.1-0.2-0.1c-0.3-0.1-0.7-0.3-1-0.4c-1.3-0.4-2.8-0.6-4.4-0.6
	c-0.2,0-0.4,0-0.5,0c-0.7,0-1.5,0-2.2,0.2c-0.5,0.1-1,0.2-1.5,0.4c-1.3,0.5-2.5,1.1-3.6,2c-0.1,0.1-0.2,0.2-0.4,0.3l0,0
	c-0.3,0.3-0.6,0.6-0.9,0.9l-0.1,0.1c0,0,0,0.1-0.1,0.1c0,0-0.1,0-0.1,0.1c-0.1,0.2-0.2,0.3-0.4,0.5c-0.1,0.1-0.2,0.2-0.3,0.3
	c-0.2,0.3-0.4,0.6-0.6,0.9c-0.8,1.3-1.4,2.6-1.7,4.1h24.6C209.1,592.8,208.3,590.9,207.1,589.4z M299,471L299,471L299,471
	C299,470.9,299,470.9,299,471c-0.1-0.5-0.3-0.9-0.4-1.2c-0.2-0.7-0.5-1.3-0.8-1.9c0-0.1-0.1-0.1-0.1-0.2c-0.3-0.5-0.5-0.9-0.7-1.3
	c-0.1-0.1-0.1-0.2-0.2-0.3c-0.1-0.1-0.1-0.1-0.1-0.2c0,0,0-0.1-0.1-0.1l-0.1-0.2c0,0,0-0.1-0.1-0.1c-0.1-0.2-0.2-0.3-0.4-0.5
	l-0.7-0.7c-0.1-0.1-0.2-0.2-0.4-0.3l0,0c-0.5-0.4-1-0.8-1.5-1.1c-0.1,0-0.2-0.1-0.2-0.1c-0.4-0.2-0.8-0.4-1.2-0.6
	c-1.4-0.5-3-0.9-4.8-1c-0.2,0-0.5,0-0.7,0c-0.9,0-1.7,0.1-2.6,0.3c-1.8,0.4-3.6,1.2-5.1,2.4c-0.3,0.2-0.5,0.4-0.8,0.7
	c-0.2,0.2-0.4,0.4-0.6,0.7c-0.3,0.3-0.6,0.7-0.9,1.1c-0.2,0.2-0.3,0.5-0.5,0.7c-0.1,0.2-0.2,0.3-0.3,0.5c-0.6,1.1-1.1,2.2-1.4,3.4
	v0.1v0.1L299,471C299,471.1,299,471,299,471z M299,471L299,471L299,471C299,470.9,299,470.9,299,471c-0.1-0.5-0.3-0.9-0.4-1.2
	c-0.2-0.7-0.5-1.3-0.8-1.9c0-0.1-0.1-0.1-0.1-0.2c-0.3-0.5-0.5-0.9-0.7-1.3c-0.1-0.1-0.1-0.2-0.2-0.3c-0.1-0.1-0.1-0.1-0.1-0.2
	c0,0,0-0.1-0.1-0.1l-0.1-0.2c0,0,0-0.1-0.1-0.1c-0.1-0.2-0.2-0.3-0.4-0.5l-0.7-0.7c-0.1-0.1-0.2-0.2-0.4-0.3l0,0
	c-0.5-0.4-1-0.8-1.5-1.1c-0.1,0-0.2-0.1-0.2-0.1c-0.4-0.2-0.8-0.4-1.2-0.6c-1.4-0.5-3-0.9-4.8-1c-0.2,0-0.5,0-0.7,0
	c-0.9,0-1.7,0.1-2.6,0.3c-1.8,0.4-3.6,1.2-5.1,2.4c-0.3,0.2-0.5,0.4-0.8,0.7c-0.2,0.2-0.4,0.4-0.6,0.7c-0.3,0.3-0.6,0.7-0.9,1.1
	c-0.2,0.2-0.3,0.5-0.5,0.7c-0.1,0.2-0.2,0.3-0.3,0.5c-0.6,1.1-1.1,2.2-1.4,3.4v0.1v0.1L299,471C299,471.1,299,471,299,471z
	 M207.1,589.4c-0.2-0.3-0.4-0.5-0.7-0.8c-0.2-0.2-0.5-0.5-0.7-0.7c-0.1-0.1-0.2-0.2-0.4-0.3c-0.4-0.4-0.9-0.7-1.4-0.9l0,0
	c-0.3-0.2-0.6-0.3-0.9-0.4c-0.1,0-0.1-0.1-0.2-0.1c-0.3-0.1-0.7-0.3-1-0.4c-1.3-0.4-2.8-0.6-4.4-0.6c-0.2,0-0.4,0-0.5,0
	c-0.7,0-1.5,0-2.2,0.2c-0.5,0.1-1,0.2-1.5,0.4c-1.3,0.5-2.5,1.1-3.6,2c-0.1,0.1-0.2,0.2-0.4,0.3l0,0c-0.3,0.3-0.6,0.6-0.9,0.9
	l-0.1,0.1c0,0,0,0.1-0.1,0.1c0,0-0.1,0-0.1,0.1c-0.1,0.2-0.2,0.3-0.4,0.5c-0.1,0.1-0.2,0.2-0.3,0.3c-0.2,0.3-0.4,0.6-0.6,0.9
	c-0.8,1.3-1.4,2.6-1.7,4.1h24.6C209.1,592.8,208.3,590.9,207.1,589.4z M207.1,589.4c-0.2-0.3-0.4-0.5-0.7-0.8
	c-0.2-0.2-0.5-0.5-0.7-0.7c-0.1-0.1-0.2-0.2-0.4-0.3c-0.4-0.4-0.9-0.7-1.4-0.9l0,0c-0.3-0.2-0.6-0.3-0.9-0.4c-0.1,0-0.1-0.1-0.2-0.1
	c-0.3-0.1-0.7-0.3-1-0.4c-1.3-0.4-2.8-0.6-4.4-0.6c-0.2,0-0.4,0-0.5,0c-0.7,0-1.5,0-2.2,0.2c-0.5,0.1-1,0.2-1.5,0.4
	c-1.3,0.5-2.5,1.1-3.6,2c-0.1,0.1-0.2,0.2-0.4,0.3l0,0c-0.3,0.3-0.6,0.6-0.9,0.9l-0.1,0.1c0,0,0,0.1-0.1,0.1c0,0-0.1,0-0.1,0.1
	c-0.1,0.2-0.2,0.3-0.4,0.5c-0.1,0.1-0.2,0.2-0.3,0.3c-0.2,0.3-0.4,0.6-0.6,0.9c-0.8,1.3-1.4,2.6-1.7,4.1h24.6
	C209.1,592.8,208.3,590.9,207.1,589.4z M299,471L299,471L299,471C299,470.9,299,470.9,299,471c-0.1-0.5-0.3-0.9-0.4-1.2
	c-0.2-0.7-0.5-1.3-0.8-1.9c0-0.1-0.1-0.1-0.1-0.2c-0.3-0.5-0.5-0.9-0.7-1.3c-0.1-0.1-0.1-0.2-0.2-0.3c-0.1-0.1-0.1-0.1-0.1-0.2
	c0,0,0-0.1-0.1-0.1l-0.1-0.2c0,0,0-0.1-0.1-0.1c-0.1-0.2-0.2-0.3-0.4-0.5l-0.7-0.7c-0.1-0.1-0.2-0.2-0.4-0.3l0,0
	c-0.5-0.4-1-0.8-1.5-1.1c-0.1,0-0.2-0.1-0.2-0.1c-0.4-0.2-0.8-0.4-1.2-0.6c-1.4-0.5-3-0.9-4.8-1c-0.2,0-0.5,0-0.7,0
	c-0.9,0-1.7,0.1-2.6,0.3c-1.8,0.4-3.6,1.2-5.1,2.4c-0.3,0.2-0.5,0.4-0.8,0.7c-0.2,0.2-0.4,0.4-0.6,0.7c-0.3,0.3-0.6,0.7-0.9,1.1
	c-0.2,0.2-0.3,0.5-0.5,0.7c-0.1,0.2-0.2,0.3-0.3,0.5c-0.6,1.1-1.1,2.2-1.4,3.4v0.1v0.1L299,471C299,471.1,299,471,299,471z
	 M442.9,511.3v-9.2c-7.5,9.4-14.8,18.5-21.8,27.4c-10.2,12.7-14.7,28.9-12.5,45c5.7,0.9,10.9,3.6,14.9,7.7
	c5.4,5.2,8.3,12.5,8.2,19.9c0,3.6-0.6,7.2-1.9,10.5l0.6,0.5c4.3,3.5,9.1,6.3,14.3,8.5v-46.1h12.2v5.8c4.8-4.8,10.3-7.2,16.4-7.3
	c6.9-0.2,13.5,2.8,18,8.1c4.8,5.3,7.2,12.1,7.2,20.2c0,7.2-2,13.3-5.8,18.3c6.3-2.9,12-6.9,16.9-11.8c-0.4-2.2-0.6-4.5-0.6-6.8
	c0-8.4,2.3-15.2,7-20.4s10.9-7.7,18.6-7.7c1,0,2,0,3,0.1c12.6-16,29.6-37.6,49.2-62.7H442.9z M299,470.8c-0.2-0.5-0.4-1-0.5-1.6l0,0
	c-0.1-0.3-0.2-0.7-0.4-1v-0.1l0,0c0,0,0,0-0.1-0.1s-0.1-0.2-0.2-0.4c0-0.1-0.1-0.1-0.1-0.2l0,0c0-0.1-0.1-0.3-0.2-0.4
	c0,0,0,0-0.1-0.1s-0.1-0.2-0.1-0.3c-0.2-0.3-0.3-0.6-0.5-0.8c0,0,0-0.1-0.1-0.1c-0.2-0.3-0.4-0.6-0.6-0.8l-0.7-0.7
	c-0.6-0.5-1.2-1-1.9-1.4c-0.1,0-0.2-0.1-0.2-0.1c-0.4-0.2-0.8-0.4-1.2-0.6c-1.4-0.5-3-0.9-4.7-1h-0.1c-0.2,0-0.4,0-0.5,0h-0.2
	c-0.2,0-0.3,0-0.5,0c-0.7,0-1.4,0.1-2.1,0.3c-1.2,0.2-2.3,0.7-3.3,1.2h-0.1c-0.3,0.2-0.6,0.3-0.8,0.5l-0.1,0.1c0,0-0.1,0.1-0.2,0.1
	l0,0c-0.2,0.1-0.3,0.2-0.5,0.3c-0.2,0.1-0.4,0.3-0.6,0.5c-0.1,0.1-0.1,0.1-0.2,0.2s-0.1,0.1-0.2,0.2s-0.3,0.2-0.4,0.4
	c-0.1,0.1-0.2,0.2-0.2,0.3c-0.1,0.1-0.2,0.3-0.3,0.4c-0.2,0.2-0.3,0.4-0.5,0.7c0,0.1-0.1,0.2-0.1,0.2c-0.1,0.1-0.1,0.2-0.1,0.2
	c-0.1,0.2-0.2,0.3-0.3,0.5c-0.2,0.3-0.4,0.7-0.5,1.1c-0.3,0.6-0.6,1.3-0.8,2c0,0.2-0.1,0.3-0.2,0.4c0,0,0,0,0,0.1L299,470.8
	C299,470.8,299,470.8,299,470.8z M207.1,589.4c-0.2-0.3-0.4-0.5-0.7-0.8c-0.2-0.2-0.5-0.5-0.7-0.7c-0.1-0.1-0.2-0.2-0.4-0.3
	c-0.4-0.4-0.9-0.7-1.4-0.9l0,0c-0.3-0.2-0.6-0.3-0.9-0.4c-0.1,0-0.1-0.1-0.2-0.1c-0.3-0.1-0.7-0.3-1-0.4c-1.3-0.4-2.8-0.6-4.4-0.6
	c-0.2,0-0.4,0-0.5,0c-0.7,0-1.5,0-2.2,0.2c-0.5,0.1-1,0.2-1.5,0.4c-1.3,0.5-2.5,1.1-3.6,2c-0.1,0.1-0.2,0.2-0.4,0.3l0,0
	c-0.1,0.1-0.2,0.2-0.4,0.3c-0.2,0.2-0.3,0.3-0.5,0.5c0,0-0.1,0.1-0.1,0.2c0,0-0.1,0-0.1,0.1c-0.2,0.2-0.5,0.5-0.7,0.8
	s-0.4,0.6-0.6,0.9c-0.8,1.3-1.4,2.6-1.7,4.1h24.6C209.1,592.8,208.3,590.9,207.1,589.4z M207.1,589.4c-0.2-0.3-0.4-0.5-0.7-0.8
	c-0.2-0.2-0.5-0.5-0.7-0.7c-0.1-0.1-0.2-0.2-0.4-0.3c-0.4-0.4-0.9-0.7-1.4-0.9l0,0c-0.3-0.2-0.6-0.3-0.9-0.4c-0.1,0-0.1-0.1-0.2-0.1
	c-0.3-0.1-0.7-0.3-1-0.4c-1.3-0.4-2.8-0.6-4.4-0.6c-0.2,0-0.4,0-0.5,0c-0.7,0-1.5,0-2.2,0.2c-0.5,0.1-1,0.2-1.5,0.4
	c-1.3,0.5-2.5,1.1-3.6,2c-0.1,0.1-0.2,0.2-0.4,0.3l0,0c-0.1,0.1-0.2,0.2-0.4,0.3c-0.2,0.2-0.3,0.3-0.5,0.5c0,0-0.1,0.1-0.1,0.2
	c0,0-0.1,0-0.1,0.1c-0.2,0.2-0.5,0.5-0.7,0.8s-0.4,0.6-0.6,0.9c-0.8,1.3-1.4,2.6-1.7,4.1h24.6C209.1,592.8,208.3,590.9,207.1,589.4z
	 M299,470.8c-0.2-0.5-0.4-1-0.5-1.6l0,0c-0.1-0.3-0.2-0.7-0.4-1v-0.1l0,0c0,0,0,0-0.1-0.1s-0.1-0.2-0.2-0.4c0-0.1-0.1-0.1-0.1-0.2
	l0,0c0-0.1-0.1-0.3-0.2-0.4c0,0,0,0-0.1-0.1s-0.1-0.2-0.1-0.3c-0.2-0.3-0.3-0.6-0.5-0.8c0,0,0-0.1-0.1-0.1c-0.2-0.3-0.4-0.6-0.6-0.8
	l-0.7-0.7c-0.6-0.5-1.2-1-1.9-1.4c-0.1,0-0.2-0.1-0.2-0.1c-0.4-0.2-0.8-0.4-1.2-0.6c-1.4-0.5-3-0.9-4.7-1h-0.1c-0.2,0-0.4,0-0.5,0
	h-0.2c-0.2,0-0.3,0-0.5,0c-0.7,0-1.4,0.1-2.1,0.3c-1.2,0.2-2.3,0.7-3.3,1.2h-0.1c-0.3,0.2-0.6,0.3-0.8,0.5l-0.1,0.1
	c0,0-0.1,0.1-0.2,0.1l0,0c-0.2,0.1-0.3,0.2-0.5,0.3c-0.2,0.1-0.4,0.3-0.6,0.5c-0.1,0.1-0.1,0.1-0.2,0.2s-0.1,0.1-0.2,0.2
	s-0.3,0.2-0.4,0.4c-0.1,0.1-0.2,0.2-0.2,0.3c-0.1,0.1-0.2,0.3-0.3,0.4c-0.2,0.2-0.3,0.4-0.5,0.7c0,0.1-0.1,0.2-0.1,0.2
	c-0.1,0.1-0.1,0.2-0.1,0.2c-0.1,0.2-0.2,0.3-0.3,0.5c-0.2,0.3-0.4,0.7-0.5,1.1c-0.3,0.6-0.6,1.3-0.8,2c0,0.2-0.1,0.3-0.2,0.4
	c0,0,0,0,0,0.1L299,470.8C299,470.8,299,470.8,299,470.8z M481.8,590c-2.6-3.1-6.5-4.9-10.6-4.8c-4.2-0.1-8.2,1.6-10.9,4.7
	c-2.8,3.1-4.2,7.2-4.2,12.3c-0.2,4.5,1.3,8.9,4.2,12.3c2.7,3.1,6.7,4.9,10.9,4.8c4,0.1,7.9-1.7,10.5-4.8c2.9-3.3,4.4-7.6,4.2-12
	C485.9,597.3,484.5,593.2,481.8,590z M456.8,622.7v2.6l3.6,0.6C459.1,624.9,457.9,623.8,456.8,622.7z M299,471L299,471L299,471
	C299,470.9,299,470.9,299,471c-0.1-0.5-0.3-0.9-0.4-1.2c-0.2-0.7-0.5-1.3-0.8-1.9c0-0.1-0.1-0.1-0.1-0.2c-0.3-0.5-0.5-0.9-0.7-1.3
	c-0.1-0.1-0.1-0.2-0.2-0.3c-0.1-0.1-0.1-0.1-0.1-0.2c0,0,0-0.1-0.1-0.1l-0.1-0.2c0,0,0-0.1-0.1-0.1c-0.1-0.2-0.2-0.3-0.4-0.5
	l-0.7-0.7c-0.1-0.1-0.2-0.2-0.4-0.3l0,0c-0.5-0.4-1-0.8-1.5-1.1c-0.1,0-0.2-0.1-0.2-0.1c-0.4-0.2-0.8-0.4-1.2-0.6
	c-1.4-0.5-3-0.9-4.8-1c-0.2,0-0.5,0-0.7,0c-0.9,0-1.7,0.1-2.6,0.3c-1.8,0.4-3.6,1.2-5.1,2.4c-0.3,0.2-0.5,0.4-0.8,0.7
	c-0.2,0.2-0.4,0.4-0.6,0.7c-0.3,0.3-0.6,0.7-0.9,1.1c-0.2,0.2-0.3,0.5-0.5,0.7c-0.1,0.2-0.2,0.3-0.3,0.5c-0.6,1.1-1.1,2.2-1.4,3.4
	v0.1v0.1L299,471C299,471.1,299,471,299,471z M207.1,589.4c-0.2-0.3-0.4-0.5-0.7-0.8c-0.2-0.2-0.5-0.5-0.7-0.7
	c-0.1-0.1-0.2-0.2-0.4-0.3c-0.4-0.4-0.9-0.7-1.4-0.9l0,0c-0.3-0.2-0.6-0.3-0.9-0.4c-0.1,0-0.1-0.1-0.2-0.1c-0.3-0.1-0.7-0.3-1-0.4
	c-1.3-0.4-2.8-0.6-4.4-0.6c-0.2,0-0.4,0-0.5,0c-0.7,0-1.5,0-2.2,0.2c-0.5,0.1-1,0.2-1.5,0.4c-1.3,0.5-2.5,1.1-3.6,2
	c-0.1,0.1-0.2,0.2-0.4,0.3l0,0c-0.3,0.3-0.6,0.6-0.9,0.9l-0.1,0.1c0,0,0,0.1-0.1,0.1c0,0-0.1,0-0.1,0.1c-0.1,0.2-0.2,0.3-0.4,0.5
	c-0.1,0.1-0.2,0.2-0.3,0.3c-0.2,0.3-0.4,0.6-0.6,0.9c-0.8,1.3-1.4,2.6-1.7,4.1h24.6C209.1,592.8,208.3,590.9,207.1,589.4z
	 M207.1,589.4c-0.2-0.3-0.4-0.5-0.7-0.8c-0.2-0.2-0.5-0.5-0.7-0.7c-0.1-0.1-0.2-0.2-0.4-0.3c-0.4-0.4-0.9-0.7-1.4-0.9l0,0
	c-0.3-0.2-0.6-0.3-0.9-0.4c-0.1,0-0.1-0.1-0.2-0.1c-0.3-0.1-0.7-0.3-1-0.4c-1.3-0.4-2.8-0.6-4.4-0.6c-0.2,0-0.4,0-0.5,0
	c-0.7,0-1.5,0-2.2,0.2c-0.5,0.1-1,0.2-1.5,0.4c-1.3,0.5-2.5,1.1-3.6,2c-0.1,0.1-0.2,0.2-0.4,0.3l0,0c-0.3,0.3-0.6,0.6-0.9,0.9
	l-0.1,0.1c0,0,0,0.1-0.1,0.1c0,0-0.1,0-0.1,0.1c-0.1,0.2-0.2,0.3-0.4,0.5c-0.1,0.1-0.2,0.2-0.3,0.3c-0.2,0.3-0.4,0.6-0.6,0.9
	c-0.8,1.3-1.4,2.6-1.7,4.1h24.6C209.1,592.8,208.3,590.9,207.1,589.4z M299,471L299,471L299,471C299,470.9,299,470.9,299,471
	c-0.1-0.5-0.3-0.9-0.4-1.2c-0.2-0.7-0.5-1.3-0.8-1.9c0-0.1-0.1-0.1-0.1-0.2c-0.3-0.5-0.5-0.9-0.7-1.3c-0.1-0.1-0.1-0.2-0.2-0.3
	c-0.1-0.1-0.1-0.1-0.1-0.2c0,0,0-0.1-0.1-0.1l-0.1-0.2c0,0,0-0.1-0.1-0.1c-0.1-0.2-0.2-0.3-0.4-0.5l-0.7-0.7
	c-0.1-0.1-0.2-0.2-0.4-0.3l0,0c-0.5-0.4-1-0.8-1.5-1.1c-0.1,0-0.2-0.1-0.2-0.1c-0.4-0.2-0.8-0.4-1.2-0.6c-1.4-0.5-3-0.9-4.8-1
	c-0.2,0-0.5,0-0.7,0c-0.9,0-1.7,0.1-2.6,0.3c-1.8,0.4-3.6,1.2-5.1,2.4c-0.3,0.2-0.5,0.4-0.8,0.7c-0.2,0.2-0.4,0.4-0.6,0.7
	c-0.3,0.3-0.6,0.7-0.9,1.1c-0.2,0.2-0.3,0.5-0.5,0.7c-0.1,0.2-0.2,0.3-0.3,0.5c-0.6,1.1-1.1,2.2-1.4,3.4v0.1v0.1L299,471
	C299,471.1,299,471,299,471z M299,471L299,471L299,471C299,470.9,299,470.9,299,471c-0.1-0.5-0.3-0.9-0.4-1.2
	c-0.2-0.7-0.5-1.3-0.8-1.9c0-0.1-0.1-0.1-0.1-0.2c-0.3-0.5-0.5-0.9-0.7-1.3c-0.1-0.1-0.1-0.2-0.2-0.3c-0.1-0.1-0.1-0.1-0.1-0.2
	c0,0,0-0.1-0.1-0.1l-0.1-0.2c0,0,0-0.1-0.1-0.1c-0.1-0.2-0.2-0.3-0.4-0.5l-0.7-0.7c-0.1-0.1-0.2-0.2-0.4-0.3l0,0
	c-0.5-0.4-1-0.8-1.5-1.1c-0.1,0-0.2-0.1-0.2-0.1c-0.4-0.2-0.8-0.4-1.2-0.6c-1.4-0.5-3-0.9-4.8-1c-0.2,0-0.5,0-0.7,0
	c-0.9,0-1.7,0.1-2.6,0.3c-1.8,0.4-3.6,1.2-5.1,2.4c-0.3,0.2-0.5,0.4-0.8,0.7c-0.2,0.2-0.4,0.4-0.6,0.7c-0.3,0.3-0.6,0.7-0.9,1.1
	c-0.2,0.2-0.3,0.5-0.5,0.7c-0.1,0.2-0.2,0.3-0.3,0.5c-0.6,1.1-1.1,2.2-1.4,3.4v0.1v0.1L299,471C299,471.1,299,471,299,471z
	 M207.1,589.4c-0.2-0.3-0.4-0.5-0.7-0.8c-0.2-0.2-0.5-0.5-0.7-0.7c-0.1-0.1-0.2-0.2-0.4-0.3c-0.4-0.4-0.9-0.7-1.4-0.9l0,0
	c-0.3-0.2-0.6-0.3-0.9-0.4c-0.1,0-0.1-0.1-0.2-0.1c-0.3-0.1-0.7-0.3-1-0.4c-1.3-0.4-2.8-0.6-4.4-0.6c-0.2,0-0.4,0-0.5,0
	c-0.7,0-1.5,0-2.2,0.2c-0.5,0.1-1,0.2-1.5,0.4c-1.3,0.5-2.5,1.1-3.6,2c-0.1,0.1-0.2,0.2-0.4,0.3l0,0c-0.3,0.3-0.6,0.6-0.9,0.9
	l-0.1,0.1c0,0,0,0.1-0.1,0.1c0,0-0.1,0-0.1,0.1c-0.1,0.2-0.2,0.3-0.4,0.5c-0.1,0.1-0.2,0.2-0.3,0.3c-0.2,0.3-0.4,0.6-0.6,0.9
	c-0.8,1.3-1.4,2.6-1.7,4.1h24.6C209.1,592.8,208.3,590.9,207.1,589.4z M299,471L299,471L299,471C299,470.9,299,470.9,299,471
	c-0.1-0.5-0.3-0.9-0.4-1.2c-0.2-0.7-0.5-1.3-0.8-1.9c0-0.1-0.1-0.1-0.1-0.2c-0.3-0.5-0.5-0.9-0.7-1.3c-0.1-0.1-0.1-0.2-0.2-0.3
	c-0.1-0.1-0.1-0.1-0.1-0.2c0,0,0-0.1-0.1-0.1l-0.1-0.2c0,0,0-0.1-0.1-0.1c-0.1-0.2-0.2-0.3-0.4-0.5l-0.7-0.7
	c-0.1-0.1-0.2-0.2-0.4-0.3l0,0c-0.5-0.4-1-0.8-1.5-1.1c-0.1,0-0.2-0.1-0.2-0.1c-0.4-0.2-0.8-0.4-1.2-0.6c-1.4-0.5-3-0.9-4.8-1
	c-0.2,0-0.5,0-0.7,0c-0.9,0-1.7,0.1-2.6,0.3c-1.8,0.4-3.6,1.2-5.1,2.4c-0.3,0.2-0.5,0.4-0.8,0.7c-0.2,0.2-0.4,0.4-0.6,0.7
	c-0.3,0.3-0.6,0.7-0.9,1.1c-0.2,0.2-0.3,0.5-0.5,0.7c-0.1,0.2-0.2,0.3-0.3,0.5c-0.6,1.1-1.1,2.2-1.4,3.4v0.1v0.1L299,471
	C299,471.1,299,471,299,471z M207.1,589.4c-0.2-0.3-0.4-0.5-0.7-0.8c-0.2-0.2-0.5-0.5-0.7-0.7c-0.1-0.1-0.2-0.2-0.4-0.3
	c-0.4-0.4-0.9-0.7-1.4-0.9l0,0c-0.3-0.2-0.6-0.3-0.9-0.4c-0.1,0-0.1-0.1-0.2-0.1c-0.3-0.1-0.7-0.3-1-0.4c-1.3-0.4-2.8-0.6-4.4-0.6
	c-0.2,0-0.4,0-0.5,0c-0.7,0-1.5,0-2.2,0.2c-0.5,0.1-1,0.2-1.5,0.4c-1.3,0.5-2.5,1.1-3.6,2c-0.1,0.1-0.2,0.2-0.4,0.3l0,0
	c-0.3,0.3-0.6,0.6-0.9,0.9l-0.1,0.1c0,0,0,0.1-0.1,0.1c0,0-0.1,0-0.1,0.1c-0.1,0.2-0.2,0.3-0.4,0.5c-0.1,0.1-0.2,0.2-0.3,0.3
	c-0.2,0.3-0.4,0.6-0.6,0.9c-0.8,1.3-1.4,2.6-1.7,4.1h24.6C209.1,592.8,208.3,590.9,207.1,589.4z M299,471L299,471L299,471
	C299,470.9,299,470.9,299,471c-0.1-0.5-0.3-0.9-0.4-1.2c-0.2-0.7-0.5-1.3-0.8-1.9c0-0.1-0.1-0.1-0.1-0.2c-0.3-0.5-0.5-0.9-0.7-1.3
	c-0.1-0.1-0.1-0.2-0.2-0.3c-0.1-0.1-0.1-0.1-0.1-0.2c0,0,0-0.1-0.1-0.1l-0.1-0.2c0,0,0-0.1-0.1-0.1c-0.1-0.2-0.2-0.3-0.4-0.5
	l-0.7-0.7c-0.1-0.1-0.2-0.2-0.4-0.3l0,0c-0.5-0.4-1-0.8-1.5-1.1c-0.1,0-0.2-0.1-0.2-0.1c-0.4-0.2-0.8-0.4-1.2-0.6
	c-1.4-0.5-3-0.9-4.8-1c-0.2,0-0.5,0-0.7,0c-0.9,0-1.7,0.1-2.6,0.3c-1.8,0.4-3.6,1.2-5.1,2.4c-0.3,0.2-0.5,0.4-0.8,0.7
	c-0.2,0.2-0.4,0.4-0.6,0.7c-0.3,0.3-0.6,0.7-0.9,1.1c-0.2,0.2-0.3,0.5-0.5,0.7c-0.1,0.2-0.2,0.3-0.3,0.5c-0.6,1.1-1.1,2.2-1.4,3.4
	v0.1v0.1L299,471C299,471.1,299,471,299,471z M207.1,589.4c-0.2-0.3-0.4-0.5-0.7-0.8c-0.2-0.2-0.5-0.5-0.7-0.7
	c-0.1-0.1-0.2-0.2-0.4-0.3c-0.4-0.4-0.9-0.7-1.4-0.9l0,0c-0.3-0.2-0.6-0.3-0.9-0.4c-0.1,0-0.1-0.1-0.2-0.1c-0.3-0.1-0.7-0.3-1-0.4
	c-1.3-0.4-2.8-0.6-4.4-0.6c-0.2,0-0.4,0-0.5,0c-0.7,0-1.5,0-2.2,0.2c-0.5,0.1-1,0.2-1.5,0.4c-1.3,0.5-2.5,1.1-3.6,2
	c-0.1,0.1-0.2,0.2-0.4,0.3l0,0c-0.3,0.3-0.6,0.6-0.9,0.9l-0.1,0.1c0,0,0,0.1-0.1,0.1c0,0-0.1,0-0.1,0.1c-0.1,0.2-0.2,0.3-0.4,0.5
	c-0.1,0.1-0.2,0.2-0.3,0.3c-0.2,0.3-0.4,0.6-0.6,0.9c-0.8,1.3-1.4,2.6-1.7,4.1h24.6C209.1,592.8,208.3,590.9,207.1,589.4z M299,471
	L299,471L299,471C299,470.9,299,470.9,299,471c-0.1-0.5-0.3-0.9-0.4-1.2c-0.2-0.7-0.5-1.3-0.8-1.9c0-0.1-0.1-0.1-0.1-0.2
	c-0.3-0.5-0.5-0.9-0.7-1.3c-0.1-0.1-0.1-0.2-0.2-0.3c-0.1-0.1-0.1-0.1-0.1-0.2c0,0,0-0.1-0.1-0.1l-0.1-0.2c0,0,0-0.1-0.1-0.1
	c-0.1-0.2-0.2-0.3-0.4-0.5l-0.7-0.7c-0.1-0.1-0.2-0.2-0.4-0.3l0,0c-0.5-0.4-1-0.8-1.5-1.1c-0.1,0-0.2-0.1-0.2-0.1
	c-0.4-0.2-0.8-0.4-1.2-0.6c-1.4-0.5-3-0.9-4.8-1c-0.2,0-0.5,0-0.7,0c-0.9,0-1.7,0.1-2.6,0.3c-1.8,0.4-3.6,1.2-5.1,2.4
	c-0.3,0.2-0.5,0.4-0.8,0.7c-0.2,0.2-0.4,0.4-0.6,0.7c-0.3,0.3-0.6,0.7-0.9,1.1c-0.2,0.2-0.3,0.5-0.5,0.7c-0.1,0.2-0.2,0.3-0.3,0.5
	c-0.6,1.1-1.1,2.2-1.4,3.4v0.1v0.1L299,471C299,471.1,299,471,299,471z M299,471L299,471L299,471C299,470.9,299,470.9,299,471
	c-0.1-0.5-0.3-0.9-0.4-1.2c-0.2-0.7-0.5-1.3-0.8-1.9c0-0.1-0.1-0.1-0.1-0.2c-0.3-0.5-0.5-0.9-0.7-1.3c-0.1-0.1-0.1-0.2-0.2-0.3
	c-0.1-0.1-0.1-0.1-0.1-0.2c0,0,0-0.1-0.1-0.1l-0.1-0.2c0,0,0-0.1-0.1-0.1c-0.1-0.2-0.2-0.3-0.4-0.5l-0.7-0.7
	c-0.1-0.1-0.2-0.2-0.4-0.3l0,0c-0.5-0.4-1-0.8-1.5-1.1c-0.1,0-0.2-0.1-0.2-0.1c-0.4-0.2-0.8-0.4-1.2-0.6c-1.4-0.5-3-0.9-4.8-1
	c-0.2,0-0.5,0-0.7,0c-0.9,0-1.7,0.1-2.6,0.3c-1.8,0.4-3.6,1.2-5.1,2.4c-0.3,0.2-0.5,0.4-0.8,0.7c-0.2,0.2-0.4,0.4-0.6,0.7
	c-0.3,0.3-0.6,0.7-0.9,1.1c-0.2,0.2-0.3,0.5-0.5,0.7c-0.1,0.2-0.2,0.3-0.3,0.5c-0.6,1.1-1.1,2.2-1.4,3.4v0.1v0.1L299,471
	C299,471.1,299,471,299,471z M204.2,465.9c-2.7-3.1-6.7-4.9-10.9-4.8c-4.1-0.1-7.9,1.7-10.6,4.8c-2.8,3.3-4.3,7.6-4.2,12
	c0,5.1,1.4,9.2,4.1,12.4c2.1,2.5,5.1,4.2,8.4,4.7c5.5-4,11.1-8.2,17-12.6c0.3-1.4,0.4-2.8,0.4-4.3
	C208.6,473.7,207.1,469.3,204.2,465.9z"/>
<path class="st2" d="M841.6,33.8c-12.1-8.5-26.9-12.5-41.6-11c-10.6,1-22.7,4.6-36.2,12.3c-9.6,5.5-21.1,13.5-35.4,24.5
	c-22.8,17.7-53.1,43.5-92.6,79c-9.2,8.3-18.8,16.9-28.6,25.9c-26.1,23.9-54.1,49.9-82.7,76.6c-1.1,1-2.2,2.1-3.3,3.1
	c-0.8-3.2-1.8-6.4-3.1-9.4L483,199.5c-5.1-2.1-10.5-3.5-15.9-4.3l54.5,54.5L442.2,328l-0.1-132c-2.9,0.5-5.6,1.1-8.2,1.8V328
	l-80.3-80.5l25.8-25.3c-5.9,3.3-12.1,6.9-18.8,10.9c-33.6,20.1-77.9,49.5-131.7,87.4C175.8,358,123.4,396.7,89.1,422.4
	c0.8,0.4,1.5,0.9,2.2,1.6c1.5,1.5,2.4,3.5,2.3,5.6c0,2.1-0.8,4.2-2.3,5.7s-3.5,2.4-5.6,2.3c-3.9,0-7.2-2.8-7.9-6.7
	C60.4,444,49.9,452,49.6,452.2c-26.1,20-31.1,57.4-11.1,83.5c20,26.1,57.4,31.1,83.5,11.1c0.4-0.3,23.4-17.9,57.8-43.5
	c-2.5-1.3-4.7-3.1-6.6-5.2c-4.8-5.4-7.1-12.2-7.1-20.3c0-7.9,2.4-14.5,7.1-19.8c4.4-5.2,11-8.1,17.8-8c6.2,0,11.8,2.5,16.7,7.6
	v-45.1H220v61.1c5-3.7,10.2-7.5,15.5-11.3v-10.9h12.3v2l3.5-2.6c-1.2,1.5-2.4,2.9-3.5,4.4v49.3h-12.3v-34.3
	c-5.3,6.5-10.5,12.8-15.5,19c-4.2,5.2-8.3,10.3-12.3,15.2c-9.8,12.2-18.7,23.5-26.2,33.3c-10.4,13.6-17.7,23.6-22.8,31.7
	c0,0.1-0.1,0.1-0.1,0.2v58.8h-12.3v-5.6c-0.4,0.4-0.9,0.8-1.3,1.2c5.2,28.8,30.4,49.7,59.6,49.7h0.2c10.1-0.1,20-2.5,29.1-6.9
	c6.6-3.3,12.8-7.1,18.7-11.5c9.3-6.7,22.6-17.8,40-33.2c-4.7-5.1-7.1-11.8-7.1-20.2s2.3-15.2,7-20.4s10.9-7.7,18.6-7.7
	s14,2.5,18.5,7.5c1.2,1.3,2.2,2.8,3,4.3c5.4-5,11.1-10.3,17-15.8v-33.5H362v22.1c19.2-17.9,40.6-38.1,64.2-60.5l-73-72l80.9-78.6
	l0.6,142.4c2.7-2.5,5.3-5,8-7.6l-0.6-134.6L596,499.6l5.1-6.6l-67.8-66.8l78.4-78.3l1.8,129.1c2.7-3.5,5.4-7,8.1-10.5L620,348.2
	l52,52.2c1.7-2.2,3.3-4.5,5-6.7L621.4,338l78.9-80.9v105.2c40.8-55,74-101.4,99.7-139.9c30.9-46,51.2-80.5,61.2-104.1
	C883.4,66.2,848.8,38.8,841.6,33.8z M91.8,504.6H79.5v-53.1h12.3V504.6z M153.1,504.6h-12.3V475c0-5.2-0.7-8.8-2.2-10.8
	c-1.4-2-4-3-7.7-3c-4.1,0-7,1.3-8.7,4s-2.5,7.3-2.5,13.9v25.6h-12.3v-53h12.3v4.9c4.3-4.3,9.1-6.4,14.5-6.4c6.2,0,11,1.9,14.4,5.8
	c3,3.3,4.5,8.7,4.5,16.2V504.6z M247.2,435.2c-1.5,1.5-3.5,2.4-5.6,2.3c-4.4,0-8-3.6-8-8v-0.1c0.1-4.4,3.6-7.9,8-7.9
	c2.1,0,4.2,0.8,5.7,2.3c1.5,1.4,2.4,3.5,2.3,5.6C249.6,431.6,248.7,433.7,247.2,435.2z M217.8,621.7c-1.7,1.9-3.6,3.5-5.7,4.8
	c-2,1.3-4.3,2.2-6.6,2.8c-2.5,0.6-5.1,0.9-7.7,0.9c-7.9,0-14.3-2.5-19.1-7.6s-7.2-11.9-7.2-20.4c0-8.4,2.3-15.2,7-20.4
	s10.9-7.7,18.6-7.7c7.7,0,14,2.5,18.5,7.5s6.8,11.8,6.8,20.5l-0.1,2.9h-38c0.1,3.9,1.6,7.6,4.2,10.4c2.5,2.6,6,3.9,9.6,3.8
	c2.7,0.1,5.4-0.7,7.6-2.2c2-1.5,4.2-4.1,6.7-8.1l10.4,5.8C221.4,617.2,219.7,619.6,217.8,621.7z M254,632.3l-27.4-56.7h13.7
	l13.7,29.8l13.7-29.8h13.8L254,632.3z M307,497.7c-1.7,1.9-3.6,3.5-5.7,4.8c-2,1.3-4.3,2.2-6.6,2.8c-2.5,0.6-5.1,0.9-7.7,0.9
	c-7.9,0-14.3-2.5-19.1-7.6c-4.8-5.1-7.2-11.9-7.2-20.4c0-8.4,2.3-15.2,7-20.4s10.9-7.8,18.6-7.7c7.8,0,14,2.5,18.5,7.5
	s6.8,11.8,6.8,20.5l-0.1,2.9h-38c0.1,3.9,1.6,7.6,4.2,10.4c2.6,2.5,6.1,3.9,9.7,3.8c2.7,0.1,5.3-0.6,7.6-2.2c2-1.5,4.2-4.1,6.7-8.1
	l10.3,5.8C310.6,493.2,308.9,495.6,307,497.7z M347.2,420.5L262.7,338l85-84.7l84.5,84.7L347.2,420.5z M611.6,328.2l-78.4-78.3
	l74.2-73.2l6.4-6.3L611.6,328.2z M619.9,327.8l2.2-157.5l76.5,76.8L619.9,327.8z"/>
<path class="st1" d="M613.5,476.9c-4.2,5.5-8.4,10.8-12.4,16.1l-67.8-66.8l78.4-78.3L613.5,476.9z"/>
<path class="st1" d="M671.9,400.3c-1.3,1.8-2.7,3.5-4,5.3c-15.8,20.9-31.4,41.4-46.3,60.8l-1.7-118.3L671.9,400.3z"/>
<path class="st1" d="M700.3,257.1v105.2c-7.5,10.2-15.3,20.6-23.4,31.4L621.4,338L700.3,257.1z"/>
<polygon class="st1" points="698.6,247 619.9,327.8 622.1,170.2 "/>
<path class="st1" d="M518.2,234.8L483,199.6c5.8,2.4,11.1,5.6,16,9.5C507.4,215.9,514.1,224.7,518.2,234.8z"/>
<polygon class="st1" points="613.9,170.4 611.6,328.2 533.3,249.9 607.5,176.7 "/>
<path class="st1" d="M521.6,249.8l-79.4,78.3L442.1,196c8.2-1.5,16.6-1.8,24.9-0.7L521.6,249.8z"/>
<path class="st1" d="M433.9,328l-80.3-80.5l25.8-25.3c11.3-6.5,23-12.3,34.9-17.5c6.3-2.7,12.9-5,19.5-6.8V328H433.9z"/>
<polygon class="st1" points="432.2,338 347.2,420.5 262.7,338 347.7,253.3 "/>
<path class="st1" d="M434.7,490.1c-2.9,2.8-5.7,5.5-8.6,8.1l-73-72l80.9-78.6L434.7,490.1z"/>
<path class="st1" d="M596,499.6l-9.3,12H442.9v-9.4c19.1-24.1,39.5-50.1,60.4-77.1l-27.5,26.1c-11.4,10.8-22.5,21.3-33.1,31.3
	l-0.6-134.6L596,499.6z"/>
<path class="st1" d="M537.5,574.2c-4.3,5.4-8.1,10.2-11.3,14.2l0,0c-0.8,0.7-1.4,1.5-2,2.4c-0.1,0.1-0.2,0.3-0.2,0.4l0,0
	c-6.3,8-9.9,12.4-10.1,12.6c-1.4,1.7-2.9,3.4-4.5,5c-0.4-2.2-0.6-4.5-0.6-6.8c0-8.4,2.3-15.2,7-20.4s10.9-7.7,18.6-7.7
	C535.5,574.1,536.6,574.1,537.5,574.2z"/>
<path class="st1" d="M491.3,582.2c-4.5-5.3-11.1-8.2-18-8.1c-6.1,0-11.6,2.4-16.4,7.3v-5.8h-12.3v46.1c3.9,1.7,8.1,2.9,12.3,3.6
	v-2.6c1.1,1.2,2.3,2.2,3.6,3.2l0,0c11,1.3,22.1-0.5,32.2-5.1l0,0c3.9-5,5.8-11.1,5.8-18.3C498.4,594.2,496.1,587.5,491.3,582.2z
	 M481.7,614.4c-2.6,3.1-6.5,4.9-10.5,4.8c-4.2,0.1-8.2-1.6-10.9-4.8c-2.9-3.4-4.4-7.8-4.2-12.3c0-5.1,1.4-9.2,4.2-12.3
	c2.8-3.1,6.8-4.8,10.9-4.7c4.1-0.1,8,1.7,10.6,4.8c2.8,3.2,4.1,7.3,4.1,12.4C486.1,606.8,484.5,611.1,481.7,614.4L481.7,614.4z"/>
<path class="st1" d="M431.6,602.2c0,3.6-0.6,7.2-1.9,10.5c-4-3.3-7.6-7.1-10.6-11.4c-0.2-4.7-1.6-8.6-4.3-11.5c-0.9-1-2-1.8-3.1-2.5
	c-1.5-4.1-2.6-8.4-3.1-12.8c5.7,0.9,10.9,3.6,14.9,7.7C428.8,587.4,431.7,594.7,431.6,602.2z"/>
<path class="st1" d="M361.9,536.6v22.1c-4.2,3.9-8.3,7.8-12.3,11.5v-33.5L361.9,536.6L361.9,536.6z"/>
<path class="st1" d="M300.8,590.9c-0.8,1.3-1.4,2.6-1.8,4.1h23.8c-3.8,3.5-7.5,6.8-11,10h-13.6c0.1,3.4,1.3,6.6,3.3,9.3
	c-3.1,2.8-6.1,5.5-9,8.1c-4.7-5.1-7.1-11.8-7.1-20.2s2.3-15.2,7-20.4s10.9-7.7,18.6-7.7s14,2.5,18.5,7.5c1.2,1.3,2.2,2.8,3.1,4.3
	c-3.2,2.9-6.2,5.7-9.2,8.5c-1.8-6.1-5.8-9.2-12.2-9.2c-1.4,0-2.8,0.2-4.2,0.7c-1.3,0.5-2.5,1.1-3.6,2
	C302.5,588.7,301.6,589.7,300.8,590.9z"/>
<polygon class="st1" points="281.6,575.6 254,632.3 226.7,575.6 240.4,575.6 254.1,605.4 267.8,575.6 "/>
<path class="st1" d="M212.4,609c-2.5,3.9-4.7,6.6-6.7,8.1c-2.2,1.5-4.9,2.3-7.6,2.2c-3.6,0.1-7.1-1.3-9.6-3.8
	c-2.6-2.8-4.1-6.5-4.2-10.4h38l0.1-2.9c0-8.7-2.3-15.6-6.8-20.5s-10.7-7.4-18.5-7.5c-7.7,0-13.9,2.6-18.6,7.7c-4.6,5.2-7,12-7,20.4
	s2.4,15.2,7.2,20.4s11.1,7.6,19.1,7.6c2.6,0,5.2-0.3,7.7-0.9c2.3-0.6,4.6-1.5,6.6-2.8c2.1-1.3,4-3,5.7-4.8c1.9-2.2,3.6-4.5,5-7
	L212.4,609z M186.9,590.9c0.7-1.2,1.7-2.2,2.8-3.1c1.1-0.9,2.3-1.5,3.6-2c1.4-0.5,2.8-0.7,4.2-0.7c6.5,0,10.6,3.3,12.4,9.8h-24.7
	C185.5,593.5,186.1,592.2,186.9,590.9z"/>
<path class="st1" d="M301.7,484.9c-2.5,3.9-4.7,6.6-6.7,8.1c-2.2,1.5-4.9,2.3-7.6,2.2c-3.6,0.1-7.1-1.2-9.6-3.8
	c-2.6-2.8-4.1-6.5-4.2-10.4h38l0.1-2.9c0-8.7-2.3-15.6-6.8-20.5s-10.7-7.4-18.5-7.5c-7.7,0-13.9,2.6-18.6,7.7s-7,11.9-7,20.4
	s2.4,15.2,7.2,20.4c4.8,5.1,11.1,7.7,19.1,7.6c2.6,0,5.2-0.3,7.7-0.9c2.3-0.6,4.6-1.5,6.6-2.8c2.1-1.3,4-2.9,5.7-4.8
	c1.9-2.1,3.6-4.5,5.1-7L301.7,484.9z M276.1,466.9c0.7-1.2,1.7-2.2,2.8-3.1c2.2-1.7,4.9-2.7,7.8-2.7c6.5,0,10.7,3.3,12.4,9.8h-24.6
	C274.7,469.5,275.3,468.2,276.1,466.9z"/>
<path class="st1" d="M249.5,429.5c0,2.1-0.8,4.2-2.3,5.7s-3.5,2.4-5.6,2.4c-4.4,0-8-3.6-8-8v-0.1c0.1-4.4,3.6-7.9,8-7.9
	c2.1,0,4.2,0.8,5.7,2.3C248.7,425.4,249.6,427.4,249.5,429.5z"/>
<path class="st1" d="M247.7,451.6v2c-4.1,3-8.2,6-12.3,8.9v-10.9H247.7z"/>
<path class="st1" d="M247.7,455.3v49.3h-12.3v-34.3C239.5,465.4,243.5,460.4,247.7,455.3z"/>
<path class="st1" d="M219.9,412.6v61.1c-4,3-8,5.9-11.9,8.7c0.3-1.4,0.4-2.8,0.4-4.3c0.2-4.5-1.3-8.9-4.2-12.3
	c-2.7-3.1-6.7-4.9-10.9-4.8c-4.1-0.1-7.9,1.7-10.6,4.8c-2.8,3.3-4.3,7.6-4.2,12c0,5.1,1.4,9.2,4.1,12.4c2.1,2.5,5.1,4.2,8.4,4.7
	l-11.3,8.3c-2.5-1.3-4.7-3.1-6.6-5.2c-4.7-5.4-7.1-12.2-7.1-20.3c0-7.9,2.4-14.5,7.1-19.8c4.4-5.2,11-8.1,17.8-8
	c6.2,0,11.8,2.5,16.7,7.6v-45.1h12.3V412.6z"/>
<path class="st1" d="M153.1,472.1v32.5h-12.3V475c0-5.2-0.7-8.8-2.2-10.8c-1.4-2-4-3-7.7-3c-4.1,0-6.9,1.3-8.7,4
	c-1.7,2.7-2.5,7.3-2.5,13.9v25.6h-12.3v-53h12.3v4.9c4.3-4.3,9.1-6.4,14.5-6.4c6.2,0,11,1.9,14.4,5.8
	C151.6,459.2,153.1,464.6,153.1,472.1z"/>
<path class="st1" d="M93.7,429.5c0,2.1-0.8,4.2-2.4,5.7c-1.5,1.5-3.5,2.4-5.6,2.4c-3.9,0-7.3-2.8-7.9-6.7l11.4-8.5
	c0.8,0.4,1.5,0.9,2.1,1.6C92.9,425.4,93.7,427.4,93.7,429.5z"/>
<path class="st0" d="M146.2,536.6v45.1c-4.9-5.1-10.5-7.6-16.7-7.6c-6.8-0.1-13.4,2.8-17.8,8c-4.8,5.3-7.1,11.9-7.1,19.8
	c0,8.1,2.4,14.9,7.1,20.3c4.6,5.2,11.2,8.1,18.1,8c5.6,0,10.6-2,15.1-5.9c-0.7-3.6-1-7.3-1-11.1v-0.3c-0.3,0.5-0.7,1.1-1.1,1.6
	c-2.8,3.1-6.8,4.8-11,4.7c-4.1,0.1-8-1.7-10.6-4.8c-2.7-3.2-4.1-7.3-4.1-12.4c-0.1-4.4,1.4-8.6,4.2-12c2.6-3.1,6.5-4.9,10.6-4.8
	c4.1-0.1,8.1,1.6,10.9,4.7c1.5,2,2.6,4.1,3.3,6.4c0-0.1,0-0.1,0-0.2c0.9-3.2,1.9-6.3,3.2-9.3c2.6-5.9,5.6-11.6,9.2-17l0,0v-33.2
	H146.2z"/>
<path class="st1" d="M158.5,569.8v58.8h-12.3V623c-0.4,0.4-0.9,0.8-1.3,1.2c-0.7-3.6-1-7.3-1-11.1v-0.3c3.2-5,3.9-11.1,2.2-16.6
	c0-0.1,0-0.1,0-0.2c0.9-3.2,1.9-6.3,3.2-9.3C151.9,580.9,155,575.2,158.5,569.8L158.5,569.8z"/>
</svg>
