<svg version="1.1" id="Layer_1" xmlns="http://www.w3.org/2000/svg" xmlns:xlink="http://www.w3.org/1999/xlink" x="0px" y="0px"
	 viewBox="0 0 982 972" style="enable-background:new 0 0 982 972;" xml:space="preserve">
<style type="text/css">
	.st0{fill:#FFFFFF;}
	.st1{font-family:'MyriadPro-Semibold';}
	.st2{font-size:84.6334px;}
	.st3{fill:#DCB121;}
</style>
<g>
	<g>
		<text transform="matrix(1 0 0 1 205.9609 763.9424)" class="st0 st1 st2">indie developer</text>
		<g>
			<path class="st3" d="M556.9,299.2v7.7l-27.1,232.8h-8.2l26.1-232.8v-4.1c0-8.5-2.6-11.5-10.2-11.5h-21.3c-17.1,0-20.2-1-23.4-7.3
				c-3,6.3-6,7.3-23.2,7.3h-21.3c-7.5,0-10.2,2.9-10.2,11.5v4.1L468,539.7h-8.2l-31-232.8v-7.7c0-11.7,6.2-18.2,17.2-18.2h25.8
				c12.9,0,15.5-1.3,16.8-7.6h8.5c1.2,6.3,3.9,7.6,16.7,7.6h25.9C550.8,281.1,556.9,287.5,556.9,299.2z"/>
			<path class="st0" d="M670,288.9l-92-100.8c-0.7-0.8-1.7-1.2-2.7-1.2H409.7c-1,0-2,0.4-2.7,1.2l-92,100.8c-0.9,1-1.2,2.4-0.7,3.7
				l91.9,251.6l7.6,71.2l0.6,5.4l2.1,1.8l46.1,41.1h67.4l38.9-41.1l1.9-2v0l0.6-5.2l7.6-71.2l91.9-251.6
				C671.2,291.3,670.9,289.9,670,288.9z M573.6,194.1l75.6,82.8l-143.8-82.8H573.6z M411.3,194.1h68.2l-143.8,82.8L411.3,194.1z
				 M412.3,539.7l-74.1-203l108.6,203H412.3z M413.8,547h145.4l-138.3,66.6L413.8,547z M526.8,656.5h-61.5l-38-33.8h131.5
				L526.8,656.5z M563.9,615.4H433.7L571,549.3L563.9,615.4z M572.7,539.7h-30.5l103-198.4L572.7,539.7z M534,539.7h-79l-132.2-247
				L492.5,195l169.7,97.7L534,539.7z"/>
		</g>
	</g>
</g>
</svg>

